<?xml version="1.0" encoding="UTF-8"?>
<svg id="Camada_2" data-name="Camada 2" xmlns="http://www.w3.org/2000/svg" viewBox="0 0 852.28 682.49">
  <defs>
    <style>
      .cls-1 {
        fill: #fff;
      }

      .cls-2 {
        fill: #969696;
      }

      .cls-3 {
        fill: #9a15a1;
      }

      .cls-4 {
        fill: #330973;
      }

      .cls-5 {
        fill: #d61de0;
      }

      .cls-6 {
        fill: #22a7f0;
      }

      .cls-7 {
        fill: #07e0b3;
      }

      .cls-8 {
        fill: #371a45;
      }

      .cls-9, .cls-10 {
        fill: #707070;
      }

      .cls-11 {
        fill: #6311e1;
      }

      .cls-12 {
        opacity: .3;
      }

      .cls-13 {
        opacity: .35;
      }

      .cls-14 {
        opacity: .7;
      }

      .cls-10 {
        stroke: #707070;
        stroke-miterlimit: 10;
        stroke-width: 3px;
      }
    </style>
  </defs>
  <g id="Camada_1-2" data-name="Camada 1">
    <g>
      <g>
        <path class="cls-1" d="m544.64,269.49s74.1-5.68,95.9,9.41c39.28,27.19,50.29,174.36,19.79,226.51-22.39,38.29-159.62,18.53-159.62,18.53"/>
        <g class="cls-13">
          <path class="cls-8" d="m660.33,505.41c-22.39,38.28-159.62,18.52-159.62,18.52l12.03-69.67c29.85,3.53,132.38,13.06,151.46-19.57,5.95-10.17,10.32-23.96,13.21-39.76,2.13,42.99-3.14,86.65-17.07,110.48Z"/>
        </g>
        <path class="cls-8" d="m573.92,533.32c-.6,0-1.2,0-1.81,0-36.98-.15-71.66-5.09-72.01-5.14-2.34-.34-3.97-2.51-3.63-4.85.34-2.34,2.52-3.97,4.85-3.63,37.38,5.38,138.14,12.91,155.31-16.45,29.94-51.2,17.82-195.66-18.53-220.83-16.85-11.66-72.94-10.2-93.13-8.66-2.36.18-4.42-1.59-4.6-3.95-.18-2.36,1.59-4.42,3.95-4.6,3.09-.24,75.88-5.61,98.67,10.16,19.3,13.36,33.47,53.39,37.9,107.07,3.36,40.82.7,95.12-16.85,125.13-9.99,17.09-40.31,25.75-90.11,25.75Z"/>
        <path class="cls-5" d="m673.83,400.07l-38.06,2.94c-3.4.26-6.19,2.78-6.79,6.13-2.19,12.28-5.79,40.92,6.18,50.34,9.93,7.82,26.02,6.87,35.44-1.14,10.53-8.95,11.5-37.03,11.3-50.93-.06-4.32-3.76-7.69-8.06-7.35Z"/>
        <g class="cls-13">
          <path class="cls-8" d="m628.99,409.15c-2.2,12.28-5.79,40.92,6.18,50.34,9.93,7.83,26.02,6.87,35.44-1.14,6.47-5.51,9.33-18.25,10.52-30.48-1.7,6.11-4.38,11.07-7.72,14.33-19.14,18.68-33.51-3.26-33.51-3.26,0,0-2.47,5.34-4.45,5.65-8.28,1.28-6.63-24.65-5.46-38.05-.48.77-.83,1.65-1,2.6Z"/>
        </g>
        <path class="cls-8" d="m651.88,469.17c-7.04,0-14-2.09-19.36-6.32-13.32-10.5-10.57-38.63-7.74-54.46.94-5.27,5.33-9.24,10.68-9.65l38.06-2.94c3.24-.25,6.45.86,8.84,3.04,2.39,2.18,3.79,5.29,3.84,8.52.28,19.54-1.71,44.82-12.81,54.26-5.9,5.02-13.75,7.56-21.5,7.56Zm22.29-64.83l-38.06,2.94c-1.45.11-2.65,1.19-2.9,2.61-4.17,23.38-2.45,40.66,4.61,46.22,8.1,6.38,21.84,5.91,30.01-1.04,6.48-5.51,10.14-23.31,9.79-47.6-.01-.89-.38-1.72-1.04-2.32-.66-.6-1.51-.9-2.41-.83h0Z"/>
        <path class="cls-8" d="m652.38,468.18c-.84-.48-1.26-.81-1.82-1.22-.51-.4-1.01-.81-1.47-1.23-.94-.84-1.8-1.74-2.59-2.68-1.57-1.88-2.97-3.87-4.05-6-2.25-4.21-3.61-8.75-4.28-13.28-.29-2.27-.54-4.54-.55-6.8-.12-2.27,0-4.45.08-6.68.1-2.22.29-4.43.58-6.65.33-2.24.65-4.36,1.47-6.7.21-.59.85-.89,1.44-.69.55.19.85.77.72,1.32l-.04.15c-.44,1.83-.6,4.08-.68,6.16-.07,2.12-.03,4.26.09,6.4.24,4.3.7,8.51,1.7,12.51,1.01,4.01,2.61,7.8,4.82,11.07,1.06,1.66,2.36,3.13,3.72,4.46.68.66,1.41,1.27,2.15,1.81.37.28.74.52,1.12.76.33.21.82.47.94.51,2.02.62,3.15,2.76,2.54,4.78-.62,2.02-2.76,3.15-4.78,2.53-.27-.08-.52-.19-.75-.32l-.37-.21Z"/>
        <path class="cls-8" d="m589.29,296.13c-1.62,0-3.18-.93-3.9-2.5-.99-2.15-.04-4.7,2.11-5.68,34.74-15.91,56.04-11.16,56.92-10.95,2.3.54,3.73,2.85,3.18,5.16-.54,2.3-2.84,3.72-5.14,3.19-.27-.06-19.67-4.14-51.4,10.4-.58.27-1.19.39-1.78.39Z"/>
      </g>
      <path class="cls-1" d="m393.08,296.56s-34.03,102.17-127.43,135.15v62.68h127.43v-197.83Z"/>
      <path class="cls-1" d="m393.08,296.56v197.83h-127.43v-62.68c93.39-32.98,127.43-135.15,127.43-135.15Z"/>
      <g class="cls-13">
        <path class="cls-8" d="m393.08,336.52v157.87h-112.46c82.09-40.77,112.46-157.87,112.46-157.87Z"/>
      </g>
      <path class="cls-8" d="m397.36,498.68h-136v-69.99l2.86-1.01c90.27-31.88,124.46-131.47,124.79-132.47l8.35-25v228.47Zm-127.43-8.57h118.86v-172.24c-4.71,9.89-11.56,22.64-20.86,36.32-18.41,27.06-50.24,62.73-98,80.54v55.39Z"/>
      <path class="cls-1" d="m631.9,494.39h-277.7s15.29-76.86,29.17-159.83c2.15-12.86,4.27-25.86,6.3-38.75,16.88-107.6,177.82-37.43,177.82-37.43,0,0,6.29,8.6,14.94,25.57,17.9,35.09,45.94,105.97,49.48,210.44Z"/>
      <path class="cls-8" d="m636.33,498.68h-287.36l1.02-5.12c.2-1.02,20.55-103.56,35.44-198.41,3.88-24.73,15.44-42.54,34.34-52.91,53.13-29.16,145.52,10.51,149.43,12.21l1.07.46.68.94c.62.85,15.29,21.17,30.77,60.87,14.21,36.47,31.73,96.88,34.46,177.54l.15,4.43Zm-276.92-8.57h268.04c-5.74-140.13-56.39-218.89-62.77-228.27-10.56-4.38-94.3-37.63-140.79-12.09-16.45,9.03-26.54,24.75-29.99,46.72-13.02,82.92-30.19,171.68-34.49,193.64Z"/>
      <g>
        <g class="cls-13">
          <path class="cls-8" d="m485.72,506.03c-.44,2.32-.85,4.61-1.22,6.86.36-2.25.77-4.53,1.22-6.86Z"/>
        </g>
        <g class="cls-13">
          <path class="cls-8" d="m379.84,403.86c-2.6,23.41-4.11,43.7-4.42,60.63-.43-15.77,1.1-36.12,4.42-60.63Z"/>
        </g>
        <circle class="cls-3" cx="367.08" cy="438.24" r="19.92"/>
        <g class="cls-13">
          <path class="cls-8" d="m347.17,438.76c.29,11,9.43,19.69,20.43,19.41,11-.29,19.69-9.45,19.41-20.44-.08-3.04-.84-5.92-2.14-8.46-3.02,6.81-9.77,11.66-17.71,11.86-7.94.21-14.93-4.28-18.29-10.93-1.17,2.61-1.77,5.53-1.69,8.56Z"/>
        </g>
        <path class="cls-8" d="m367.07,461.68c-12.64,0-23.09-10.11-23.42-22.82h0c-.16-6.26,2.12-12.2,6.43-16.74,4.31-4.54,10.13-7.13,16.38-7.29,6.28-.16,12.2,2.12,16.74,6.43,4.54,4.31,7.13,10.13,7.29,16.39.34,12.92-9.9,23.7-22.81,24.03-.21,0-.41,0-.62,0Zm.02-39.85c-.15,0-.29,0-.44,0-4.38.11-8.46,1.93-11.48,5.11-3.02,3.18-4.62,7.34-4.5,11.73.24,9.05,7.82,16.18,16.84,15.98,9.05-.24,16.22-7.79,15.98-16.84-.11-4.38-1.93-8.46-5.11-11.48-3.07-2.92-7.07-4.51-11.29-4.51Z"/>
        <g>
          <g class="cls-13">
            <path class="cls-8" d="m376.73,457.66c3.4-22.37,4.05-43.11,3.1-61.56-.46,10.66-1.47,21.85-3.24,33.5-2.07,13.66-2.71,27.92-1.44,41.93.35-4.66.89-9.29,1.58-13.86Z"/>
          </g>
          <path class="cls-5" d="m395.91,496.24l104.04,5.35c12.31.64,22.92-8.92,23.55-21.25l2.84-55.37c.55-10.79-6.71-20.26-16.8-22.87-1.43-.38-2.92-.6-4.45-.68l-104.03-5.35c-12.33-.64-22.93,8.92-23.55,21.25l-2.26,43.85-.6,11.51c-.64,12.33,8.94,22.92,21.25,23.55Z"/>
          <g class="cls-13">
            <path class="cls-8" d="m395.91,496.24l104.04,5.35c12.31.64,22.92-8.92,23.55-21.25l2.84-55.37c.55-10.79-6.71-20.26-16.8-22.87-6.11,3.62-9.99,5.94-9.99,5.94-7.35,44.18-21.14,65.69-76.38,63.76-23.84-.84-38.69-5.25-47.93-10.62l-.6,11.51c-.64,12.33,8.94,22.92,21.25,23.55Z"/>
          </g>
          <path class="cls-8" d="m501.12,505.9c-.46,0-.93-.01-1.39-.04h0l-104.03-5.35c-7.1-.37-13.65-3.49-18.45-8.8-4.79-5.31-7.23-12.15-6.87-19.25l2.85-55.37c.76-14.71,13.36-26.06,28.05-25.31l104.03,5.35c14.71.76,26.07,13.34,25.31,28.05l-2.85,55.37c-.36,7.1-3.49,13.65-8.8,18.45-4.96,4.48-11.26,6.9-17.86,6.9Zm-.95-8.6c9.98.52,18.54-7.2,19.06-17.19l2.85-55.37c.51-9.99-7.2-18.54-17.19-19.06l-104.03-5.35c-4.82-.25-9.46,1.41-13.07,4.67-3.61,3.26-5.74,7.71-5.99,12.52l-2.85,55.37c-.25,4.82,1.41,9.46,4.67,13.07,3.26,3.61,7.71,5.74,12.52,5.99l104.03,5.35h0Z"/>
          <path class="cls-1" d="m391.76,495.61c1.33.35,2.71.56,4.15.62l104.04,5.35c9.02.46,17.13-4.54,21.06-12.12,1.43-2.75,2.32-5.84,2.48-9.13l1.27-24.6.42-8.12,1.16-22.65c.64-12.33-8.94-22.92-21.25-23.55l-22.48-1.15c10.26,2.49,17.68,12.03,17.13,22.93l-1.53,29.91-1.31,25.47c-.64,12.31-11.24,21.89-23.55,21.25l-81.59-4.21Z"/>
          <g class="cls-13">
            <path class="cls-8" d="m391.76,495.61c1.33.35,2.71.56,4.15.62l104.04,5.35c12.31.64,22.92-8.92,23.54-21.25l1.69-32.71c-2.91,5.65-7.98,12.5-15.54,12.86-4.15.21-8.06-2.97-11.43-7.38l-1.31,25.47c-.64,12.31-11.24,21.89-23.55,21.25l-81.59-4.21Z"/>
          </g>
          <path class="cls-8" d="m501.13,505.9c-.47,0-.93-.01-1.4-.04l-104.04-5.35c-1.67-.08-3.36-.33-5-.74l1.28-8.43,81.6,4.2c4.81.25,9.45-1.41,13.06-4.67,3.61-3.26,5.74-7.71,5.98-12.52l2.85-55.37c.45-8.69-5.38-16.5-13.85-18.56l1.23-8.44,22.47,1.15c7.11.37,13.66,3.5,18.45,8.81,4.79,5.31,7.23,12.15,6.86,19.25l-2.85,55.37c-.36,7.1-3.49,13.65-8.8,18.45-4.96,4.48-11.25,6.9-17.84,6.9Zm-8.42-8.98l7.46.38c4.81.25,9.45-1.41,13.06-4.67,3.61-3.26,5.74-7.71,5.98-12.52h0s2.85-55.37,2.85-55.37c.25-4.82-1.41-9.46-4.67-13.07-3.26-3.61-7.71-5.74-12.53-5.99l-6.7-.34c3.99,4.97,6.19,11.34,5.85,18.07l-2.85,55.37c-.35,6.95-3.35,13.37-8.46,18.13Z"/>
          <path class="cls-6" d="m457.28,449.22c-.09,2.05,2.03,18.71,2.03,18.71,0,0,5.24.24,11.67.53,8.03.37,14.93-7.65,15.4-17.92s-5.66-18.88-13.7-19.24c-5.42-.25-11.67-.53-11.67-.53,0,0-3.58,15.11-3.73,18.45Z"/>
          <g class="cls-13">
            <path class="cls-8" d="m457.28,449.22c-.09,2.05,2.03,18.71,2.03,18.71,0,0,5.24.24,11.67.53,8.03.37,14.93-7.65,15.4-17.92s-5.66-18.88-13.7-19.24c-5.42-.25-11.67-.53-11.67-.53,0,0-3.58,15.11-3.73,18.45Z"/>
          </g>
          <path class="cls-8" d="m471.5,471.69c-.22,0-.44,0-.67-.02l-8.1-.37c-3.64-.17-6.6-2.91-7.05-6.52-1.7-13.79-1.63-15.19-1.61-15.71.09-1.96,1.1-7.2,3.01-15.57.8-3.52,4.03-5.96,7.6-5.78l8.15.37c4.89.22,9.34,2.8,12.51,7.26,3,4.22,4.51,9.67,4.25,15.34-.54,11.74-8.58,21-18.08,21Zm-11.01-22.33c0,.29.05,2.31,1.57,14.64.06.49.46.86.96.88l8.1.37c6.29.28,11.65-6.38,12.04-14.85.19-4.25-.9-8.27-3.07-11.32-2-2.81-4.69-4.43-7.57-4.57l-8.15-.37c-.51-.01-.93.31-1.04.79-2.53,11.14-2.82,13.85-2.85,14.43Zm-3.21-.14h.01-.01Z"/>
          <ellipse class="cls-6" cx="460.16" cy="449.35" rx="18.6" ry="14.56" transform="translate(-9.72 888.54) rotate(-87.39)"/>
          <path class="cls-1" d="m474.71,450.02c-.1,2.13-.47,4.16-1.08,6.04.2-9.99-5.84-18.26-13.71-18.62-6.36-.29-12.01,4.69-14.31,11.88-.01-.21,0-.42.01-.63.47-10.26,7.36-18.28,15.4-17.91,8.04.36,14.16,8.98,13.7,19.24Z"/>
          <g class="cls-13">
            <path class="cls-8" d="m474.71,450.02c-.47,10.26-7.36,18.29-15.4,17.92-8.04-.37-14.17-8.99-13.7-19.25.1-1.99.43-3.9.98-5.68,2,6.5,6.86,11.17,12.73,11.44,6.47.29,12.2-4.85,14.42-12.24.75,2.39,1.1,5.04.98,7.8Z"/>
          </g>
          <path class="cls-8" d="m459.85,471.16c-.23,0-.46,0-.69-.02-9.79-.45-17.31-10.59-16.76-22.6h0c.55-12.02,8.92-21.45,18.75-20.98,4.89.22,9.34,2.8,12.51,7.26,3,4.22,4.51,9.67,4.25,15.34-.26,5.68-2.26,10.97-5.63,14.89-3.4,3.95-7.79,6.1-12.43,6.1Zm-11.03-22.33c-.39,8.48,4.39,15.6,10.64,15.89,2.86.13,5.7-1.24,7.95-3.86,2.44-2.84,3.89-6.75,4.09-11,.19-4.25-.9-8.27-3.07-11.32-2-2.81-4.69-4.43-7.57-4.56-6.3-.28-11.65,6.38-12.04,14.85h0Z"/>
          <path class="cls-8" d="m428.28,500.71s-.06,0-.09,0c-1.77-.05-3.17-1.53-3.12-3.3l1.02-36.72-17.28-12.14,2.49-51.91c.09-1.77,1.62-3.11,3.36-3.06,1.77.08,3.14,1.59,3.06,3.36l-2.32,48.38,17.21,12.09-1.11,40.17c-.05,1.74-1.48,3.12-3.21,3.12Z"/>
        </g>
        <path class="cls-1" d="m616.67,424.02s9.63,7.66,10.05,19.48c.49,13.67-8.06,19.21-8.06,19.21,0,0-37.42,19.16-97.45,6.43,0,0-17.67-22.33,2.01-34.94,0,0,63.36,8.7,93.45-10.18Z"/>
        <g class="cls-13">
          <path class="cls-8" d="m626.72,443.52c.49,13.65-8.06,19.19-8.06,19.19,0,0-37.41,19.17-97.46,6.43,0,0-5.81-7.36-7.05-16,.28.43.47.65.47.65,43.88,9.31,75.68,1.57,89.61-3.26,9.68-3.36,16.14-12.14,15.92-21.96,0-.13,0-.27-.01-.41,0-.23-.01-.46-.05-.67,2.81,3.35,6.38,8.94,6.63,16.02Z"/>
        </g>
        <path class="cls-8" d="m561.88,477.83c-12.24,0-26.16-1.23-41.56-4.49l-1.51-.32-.96-1.21c-.41-.52-10.04-12.87-7.9-25.62,1.07-6.36,4.76-11.61,10.96-15.58l1.33-.85,1.56.21c.62.08,62.18,8.26,90.59-9.57l2.57-1.61,2.38,1.89c.46.36,11.18,9.05,11.66,22.68.57,15.91-9.58,22.68-10.01,22.96l-.38.22c-1.18.61-22.62,11.3-58.74,11.3Zm-38.15-12.54c54.28,11.06,89.52-4.74,92.75-6.28.97-.74,6.33-5.29,5.96-15.36-.23-6.52-3.99-11.65-6.41-14.3-29.34,15.9-81.56,10.54-91.73,9.31-3.37,2.48-5.31,5.41-5.89,8.93-1.19,7.08,3.37,14.79,5.32,17.69Z"/>
      </g>
      <g>
        <g class="cls-13">
          <path class="cls-8" d="m582.42,283.95c-25.49,34.71-63.71,57.46-105.41,64.01-3.06.47-6.14.87-9.22,1.18-8.49.82-17.09,1-25.73.45-7.15-.45-14.35-1.37-21.51-2.82-8.31-1.65-16.6-3.99-24.8-7.03-2.71-1.02-5.39-2.09-8-3.22-1.47-.63-2.92-1.29-4.36-1.96,2.15-12.86,4.27-25.86,6.3-38.75,16.88-107.6,177.82-37.43,177.82-37.43,0,0,6.29,8.6,14.94,25.57Z"/>
        </g>
        <g>
          <path class="cls-1" d="m308.54,250.09c14.02,23.14,33.87,42.87,58.44,56.76,5.01,2.83,10.2,5.42,15.58,7.75,2.61,1.14,5.29,2.21,8.01,3.23,8.2,3.04,16.49,5.38,24.8,7.03,7.17,1.44,14.36,2.36,21.51,2.82,8.64.55,17.24.38,25.73-.45,3.09-.31,6.17-.71,9.23-1.18,55.95-8.8,105.64-46.73,126.74-103.61,31.1-83.78-11.62-176.91-95.39-208.01-16.14-5.98-32.64-9.25-48.96-9.98-1.91-.1-3.82-.15-5.74-.16-5.12-.06-10.22.13-15.28.56-11.69,1-23.19,3.28-34.26,6.73-11.08,3.44-21.77,8.06-31.84,13.77-3.2,1.81-6.35,3.73-9.43,5.77-4.62,3.06-9.09,6.33-13.4,9.88-21.49,17.57-38.74,40.92-49.1,68.83-17.89,48.19-11.35,99.47,13.36,140.27Z"/>
          <path class="cls-8" d="m446.9,328.42c-3.36,0-6.72-.11-10.05-.32-7.28-.46-14.54-1.41-21.57-2.82-8.4-1.67-16.76-4.04-24.87-7.05-2.98-1.12-5.61-2.18-8.03-3.24-5.28-2.28-10.54-4.89-15.62-7.77-24-13.58-44.26-33.26-58.59-56.92-25.85-42.68-30.74-93.94-13.4-140.64,10.02-27.02,27.04-50.88,49.23-69.01,4.19-3.45,8.71-6.78,13.43-9.9,3.02-2,6.21-3.94,9.46-5.78,10.1-5.72,20.84-10.37,31.92-13.81,11.18-3.48,22.74-5.75,34.35-6.74,5.05-.43,10.21-.62,15.32-.56,2.05,0,3.94.06,5.76.16,16.66.74,33.17,4.11,49.08,10,83.87,31.14,126.77,124.7,95.64,208.56-20.39,54.96-69.08,94.77-127.07,103.89-3.05.47-6.16.87-9.25,1.18-5.24.51-10.51.77-15.75.77Zm-137.99-78.56c14.26,23.53,34.41,43.11,58.28,56.61,5.06,2.86,10.28,5.46,15.54,7.73,2.41,1.05,5.03,2.11,7.99,3.22,8.06,2.99,16.38,5.35,24.73,7.01,6.99,1.41,14.21,2.35,21.46,2.81,8.47.54,17.1.39,25.66-.45,3.07-.31,6.17-.71,9.2-1.18,57.68-9.07,106.12-48.67,126.4-103.34,30.97-83.42-11.71-176.48-95.13-207.45-15.83-5.86-32.26-9.21-48.83-9.95-1.81-.1-3.68-.15-5.72-.16-5.09-.05-10.21.13-15.24.56-11.55.99-23.05,3.24-34.17,6.71-11.02,3.42-21.71,8.04-31.76,13.73-3.24,1.83-6.4,3.77-9.41,5.75-4.7,3.11-9.19,6.42-13.36,9.85-22.07,18.04-39,41.77-48.97,68.65-17.25,46.45-12.39,97.44,13.33,139.89Z"/>
        </g>
        <g class="cls-13">
          <path class="cls-8" d="m598.57,222.43c-21.1,56.89-70.79,94.83-126.74,103.61-3.06.48-6.13.87-9.22,1.18-8.49.83-17.09,1-25.73.45-7.15-.46-14.35-1.38-21.51-2.81-8.32-1.65-16.6-3.98-24.81-7.03-2.71-1.03-5.39-2.09-8.01-3.23-5.38-2.33-10.56-4.93-15.58-7.76-24.57-13.9-44.43-33.62-58.44-56.77-7.7-12.71-13.64-26.44-17.62-40.78,13.88,21.77,33.03,40.33,56.47,53.59,5.01,2.84,10.2,5.43,15.58,7.76,2.61,1.14,5.29,2.2,8.01,3.23,8.21,3.04,16.49,5.38,24.8,7.03,7.17,1.43,14.36,2.36,21.51,2.81,8.64.54,17.25.37,25.73-.45,3.1-.31,6.17-.71,9.23-1.19,55.95-8.79,105.64-46.72,126.74-103.61,12.32-33.18,13.05-67.83,4.24-99.5,26.35,41.29,33.72,94,15.36,143.45Z"/>
        </g>
        <path class="cls-8" d="m446.9,331.31c-3.42,0-6.84-.11-10.23-.32-7.41-.47-14.8-1.43-21.96-2.87-8.54-1.7-17.06-4.11-25.3-7.17-3.04-1.15-5.71-2.22-8.18-3.3-5.37-2.32-10.71-4.98-15.89-7.9-24.43-13.82-45.06-33.86-59.65-57.94-26.31-43.43-31.28-95.61-13.63-143.14,10.2-27.5,27.53-51.79,50.11-70.25,4.26-3.5,8.86-6.9,13.67-10.07,3.08-2.03,6.32-4.02,9.63-5.89,10.28-5.82,21.21-10.55,32.49-14.05,11.38-3.55,23.14-5.86,34.97-6.86,5.14-.44,10.4-.64,15.59-.57,2.08,0,4.01.06,5.88.16,16.93.75,33.74,4.18,49.93,10.18,85.36,31.69,129.03,126.92,97.35,212.28-20.75,55.94-70.31,96.46-129.34,105.74-3.11.48-6.27.89-9.41,1.2-5.34.52-10.7.78-16.04.78Zm-135.52-82.94c14,23.11,33.79,42.33,57.23,55.59,4.97,2.81,10.1,5.36,15.26,7.59,2.38,1.04,4.94,2.07,7.86,3.17,7.9,2.93,16.08,5.25,24.28,6.88,6.87,1.38,13.96,2.31,21.07,2.76,8.32.53,16.8.38,25.19-.44,3.01-.3,6.06-.69,9.04-1.16,56.65-8.91,104.21-47.79,124.13-101.49,30.41-81.92-11.5-173.32-93.43-203.74-15.55-5.76-31.68-9.05-47.95-9.77-1.79-.1-3.61-.15-5.61-.16-5.01-.05-10.05.13-14.98.55-11.34.97-22.63,3.18-33.56,6.59-10.83,3.36-21.32,7.9-31.19,13.49-3.18,1.8-6.29,3.7-9.24,5.65-4.61,3.05-9.03,6.3-13.12,9.67-21.68,17.72-38.3,41.03-48.09,67.42-16.94,45.62-12.17,95.7,13.09,137.39Z"/>
        <path class="cls-8" d="m446.9,332.28c-3.45,0-6.88-.11-10.29-.32-7.45-.47-14.88-1.44-22.09-2.89-8.59-1.71-17.15-4.13-25.45-7.21-3.06-1.15-5.74-2.24-8.23-3.32-5.39-2.33-10.77-5.01-15.98-7.94-24.58-13.9-45.32-34.05-59.99-58.28h0c-26.47-43.69-31.46-96.17-13.71-143.98,10.26-27.66,27.69-52.09,50.41-70.66,4.28-3.52,8.91-6.93,13.74-10.13,3.1-2.05,6.36-4.04,9.69-5.92,10.34-5.86,21.33-10.61,32.68-14.13,11.45-3.57,23.28-5.89,35.17-6.9,5.18-.44,10.46-.63,15.69-.58,2.09,0,4.04.06,5.92.16,17.02.76,33.93,4.2,50.22,10.24,85.86,31.88,129.78,127.66,97.91,213.52-20.87,56.27-70.72,97.02-130.09,106.36-3.13.48-6.31.89-9.46,1.21-5.37.53-10.77.79-16.14.79Zm-134.69-84.41c13.91,22.97,33.58,42.07,56.88,55.26,4.94,2.79,10.04,5.33,15.17,7.54,2.36,1.03,4.92,2.06,7.82,3.16,7.85,2.91,15.97,5.21,24.13,6.83,6.83,1.37,13.88,2.3,20.95,2.74,8.27.53,16.69.38,25.04-.44,2.99-.3,6.02-.69,8.99-1.15,56.3-8.85,103.58-47.5,123.38-100.87,30.23-81.43-11.43-172.27-92.86-202.5-15.45-5.72-31.49-8.99-47.66-9.71-1.78-.1-3.59-.15-5.57-.15-5.01-.05-10,.13-14.9.55-11.27.96-22.49,3.16-33.35,6.55-10.77,3.34-21.2,7.85-31,13.41-3.16,1.79-6.25,3.68-9.18,5.62-4.58,3.03-8.97,6.27-13.04,9.61-21.55,17.61-38.07,40.78-47.8,67.01-16.84,45.35-12.09,95.12,13.01,136.55h0Z"/>
        <path class="cls-11" d="m334.4,282.51c97.88,61.59,224.41,8.19,225.69-106.35.87-77.92-74.76-138.94-149.65-134.98-54.51,2.88-106.47,29.54-125.12,115.36,0,0-2.39,39.27,9.45,64.76s27.67,48.29,27.67,48.29l11.97,12.91Z"/>
        <path class="cls-4" d="m560.08,176.16c-1.27,114.53-127.8,167.93-225.68,106.35l-2.42-2.62c105.08,13.56,205.89-53.84,209.33-169.62,12.03,19.4,19.04,41.84,18.77,65.89Z"/>
        <path class="cls-8" d="m421.98,329.27c-2.26,0-4.51-.04-6.78-.13l-.67-.08c-8.6-1.71-17.16-4.13-25.46-7.21-3.06-1.15-5.74-2.24-8.23-3.32-5.39-2.33-10.77-5.01-15.98-7.94-24.58-13.9-45.32-34.05-59.99-58.28-26.47-43.69-31.46-96.17-13.71-143.98,10.26-27.66,27.69-52.09,50.41-70.66l.34-.28.39-.2c18.99-9.85,41.32-15.51,66.37-16.83,44.64-2.36,91.43,15.59,125.24,48.02,31.07,29.8,47.93,68.17,47.48,108.03-.49,43.32-16.37,81.09-45.92,109.21-29.35,27.94-70.4,43.65-113.49,43.65Zm-6.11-8.68c43.11,1.57,84.55-13.44,113.7-41.18,27.84-26.49,42.79-62.15,43.26-103.1.42-37.47-15.51-73.6-44.85-101.75-32.13-30.82-76.56-47.89-118.85-45.65-23.64,1.25-44.66,6.52-62.48,15.68-21.37,17.57-37.77,40.63-47.45,66.72-16.84,45.35-12.09,95.12,13.01,136.55,13.91,22.97,33.58,42.07,56.88,55.26,4.94,2.79,10.04,5.33,15.17,7.54,2.36,1.03,4.92,2.06,7.82,3.16,7.74,2.87,15.75,5.15,23.79,6.77Z"/>
        <path class="cls-8" d="m422.38,312.69c-30.81,0-62.24-8.92-90.27-26.56l-.48-.3-12.73-13.8c-.66-.94-16.17-23.39-28.03-48.93-12.16-26.18-9.94-65.18-9.84-66.83l.09-.65c16.33-75.12,59.76-115.07,129.08-118.73,39.83-2.09,81.61,13.92,111.77,42.85,27.73,26.6,42.79,60.86,42.39,96.46-.57,51.4-26.01,94.56-69.78,118.41-22.17,12.08-46.98,18.07-72.21,18.07Zm-85.23-33.51c48.26,30.14,106.97,33.19,153.34,7.92,40.97-22.33,64.77-62.78,65.31-110.98.37-33.2-13.75-65.23-39.76-90.18-28.49-27.33-67.87-42.46-105.38-40.48-64.89,3.43-105.62,41-121.09,111.65-.18,3.72-1.62,39.36,9.08,62.38,10.9,23.46,25.42,44.91,27.14,47.41l11.37,12.27Z"/>
        <ellipse class="cls-1" cx="589.78" cy="172.14" rx="42.05" ry="57.87" transform="translate(-8.86 33.91) rotate(-3.27)"/>
        <g class="cls-13">
          <path class="cls-8" d="m596.09,229.59c-21.45,3.37-41.57-16.23-47-44.63,4.26,1.19,8.71,1.5,13.22.79,22.99-3.62,49.9-30.83,46.41-62.56-.24-2.13-11.64-5.66-12.03-7.7,17.5,4.87,31.92,24.6,34.72,50.1,3.48,31.73-12.33,60.38-35.32,64Z"/>
        </g>
        <path class="cls-8" d="m591.23,234.26c-8.17,0-16.19-2.86-23.45-8.41-13.02-9.95-21.72-26.97-23.89-46.69-3.73-33.92,13.73-64.74,38.91-68.7,10.06-1.58,20.09,1.17,28.98,7.97,13.02,9.95,21.72,26.97,23.89,46.69h0c3.73,33.92-13.73,64.74-38.91,68.7-1.85.29-3.69.44-5.53.44Zm-2.95-115.66c-1.38,0-2.76.11-4.14.32-20.73,3.26-34.96,29.86-31.72,59.3,1.89,17.15,9.58,32.41,20.58,40.82,6.99,5.34,14.75,7.53,22.44,6.31,20.73-3.26,34.96-29.86,31.72-59.3h0c-1.88-17.15-9.58-32.41-20.58-40.82-5.73-4.38-11.99-6.64-18.3-6.64Z"/>
        <g>
          <ellipse class="cls-1" cx="603.78" cy="175.45" rx="34.26" ry="45.93" transform="translate(-3.84 13.81) rotate(-1.31)"/>
          <path class="cls-8" d="m604.29,221.85c-3.3,0-6.62-.64-9.89-1.92-18.39-7.22-29.19-33.02-24.06-57.52,2.87-13.72,10.19-24.65,20.07-29.99,7.28-3.93,15.14-4.43,22.76-1.44,18.39,7.22,29.19,33.02,24.06,57.52-2.87,13.72-10.19,24.65-20.07,29.99-4.15,2.24-8.49,3.37-12.86,3.37Zm-1.01-91.9c-4.23,0-8.43,1.09-12.44,3.26-9.65,5.21-16.8,15.92-19.62,29.38-5.04,24.09,5.51,49.43,23.51,56.5,7.36,2.89,14.96,2.4,22-1.4,9.65-5.21,16.8-15.92,19.62-29.38,5.04-24.09-5.51-49.43-23.51-56.5-3.16-1.24-6.37-1.86-9.56-1.86Z"/>
        </g>
        <g class="cls-13">
          <path class="cls-8" d="m573.74,198.33c-3.03-8.16-3.83-17.17-2.73-25.84,8.48,18.02,26.34,23.78,41.36,12.69,9.71-7.16,15.98-19.73,17.68-33.15.54,1.13,1.04,2.33,1.5,3.57,7.71,20.77,1.02,47.18-14.95,58.98-15.97,11.8-35.15,4.52-42.86-16.25Z"/>
        </g>
        <path class="cls-8" d="m605.23,225.68c-6.05,0-12-2.13-17.44-6.27-10.52-8.01-17.86-22.78-19.63-39.52-3.02-28.53,10.16-53.45,30-56.74,7.49-1.24,14.99.81,21.7,5.91,10.52,8.01,17.86,22.78,19.63,39.53,3.02,28.53-10.16,53.45-30,56.74-1.42.24-2.84.35-4.26.35Zm-2.86-94.3c-.94,0-1.87.08-2.81.23-14.86,2.46-25.34,24.16-22.87,47.38,1.53,14.44,7.62,27,16.3,33.61,4.78,3.64,10.01,5.12,15.11,4.28,14.86-2.46,25.34-24.16,22.87-47.38-1.53-14.44-7.62-27-16.3-33.61-3.91-2.98-8.11-4.51-12.3-4.51Z"/>
        <g class="cls-14">
          <path class="cls-1" d="m450.41,67.58s-73.01,8.55-111.08,52.85c-.04.05-.08.09-.12.14-8,9.33-13.34,20.66-15.53,32.76-2.89,16-2.55,27.45-1.85,37.51,2.13,30.62,8.86,44.56,8.86,44.56-18.54-14.97-29.63-32.65-31.66-58.13-.19-2.51-.3-5.11-.32-7.78,0-.62,0-1.23.01-1.84-.01,0,0-.02,0-.04.33-5.41,1.03-12.51,2.49-20.45,4.39-23.94,15.61-55.55,44.12-71.84,53.32-30.46,107.37-11.12,105.07-7.75Z"/>
        </g>
        <g class="cls-14">
          <ellipse class="cls-1" cx="524.99" cy="182.48" rx="8.93" ry="10.41" transform="translate(-29 227.36) rotate(-23.8)"/>
        </g>
      </g>
      <path class="cls-4" d="m837.03,477.35c-54.88,118.97-216.21,205.15-406.71,205.15S78.49,596.31,23.62,477.35h813.41Z"/>
      <g>
        <path class="cls-7" d="m558.02,609.87l-5.06.78c-1.01.16-1.81.95-1.97,1.97l-.78,5.06-.78-5.06c-.16-1.01-.95-1.81-1.97-1.97l-5.06-.78,5.06-.78c1.01-.16,1.81-.95,1.97-1.97l.78-5.06.78,5.06c.16,1.01.95,1.81,1.97,1.97l5.06.78Z"/>
        <path class="cls-7" d="m427.47,587.41l-5.06.78c-1.01.16-1.81.95-1.97,1.97l-.78,5.06-.78-5.06c-.16-1.01-.95-1.81-1.97-1.97l-5.06-.78,5.06-.78c1.01-.16,1.81-.95,1.97-1.97l.78-5.06.78,5.06c.16,1.01.95,1.81,1.97,1.97l5.06.78Z"/>
        <path class="cls-7" d="m476.01,637.48l-5.09.79c-1.02.16-1.82.96-1.98,1.98l-.79,5.09-.79-5.09c-.16-1.02-.96-1.82-1.98-1.98l-5.09-.79,5.09-.79c1.02-.16,1.82-.96,1.98-1.98l.79-5.09.79,5.09c.16,1.02.96,1.82,1.98,1.98l5.09.79Z"/>
        <path class="cls-7" d="m706.76,579.99l-6.87,1.06c-1.38.21-2.46,1.29-2.67,2.67l-1.06,6.87-1.06-6.87c-.21-1.38-1.29-2.46-2.67-2.67l-6.87-1.06,6.87-1.06c1.38-.21,2.46-1.29,2.67-2.67l1.06-6.87,1.06,6.87c.21,1.38,1.29,2.46,2.67,2.67l6.87,1.06Z"/>
        <path class="cls-7" d="m88.96,498.57l-5.96.92c-1.19.18-2.13,1.12-2.31,2.31l-.92,5.96-.92-5.96c-.18-1.19-1.12-2.13-2.31-2.31l-5.96-.92,5.96-.92c1.19-.18,2.13-1.12,2.31-2.31l.92-5.96.92,5.96c.18,1.19,1.12,2.13,2.31,2.31l5.96.92Z"/>
        <path class="cls-7" d="m346.12,568l-6.45,1c-1.29.2-2.31,1.21-2.51,2.51l-1,6.45-1-6.45c-.2-1.29-1.21-2.31-2.51-2.51l-6.45-1,6.45-1c1.29-.2,2.31-1.21,2.51-2.51l1-6.45,1,6.45c.2,1.29,1.21,2.31,2.51,2.51l6.45,1Z"/>
        <path class="cls-7" d="m630.67,611.55l-6.14.95c-1.23.19-2.2,1.16-2.39,2.39l-.95,6.14-.95-6.14c-.19-1.23-1.16-2.2-2.39-2.39l-6.14-.95,6.14-.95c1.23-.19,2.2-1.16,2.39-2.39l.95-6.14.95,6.14c.19,1.23,1.16,2.2,2.39,2.39l6.14.95Z"/>
        <path class="cls-7" d="m256.17,566.49l-5.06.78c-1.01.16-1.81.95-1.97,1.97l-.78,5.06-.78-5.06c-.16-1.01-.95-1.81-1.97-1.97l-5.06-.78,5.06-.78c1.01-.16,1.81-.95,1.97-1.97l.78-5.06.78,5.06c.16,1.01.95,1.81,1.97,1.97l5.06.78Z"/>
        <path class="cls-7" d="m269.42,629.11l-3.36-3.86c-.67-.77-1.77-1.02-2.71-.61l-4.7,2.04,3.86-3.36c.77-.67,1.02-1.77.61-2.71l-2.04-4.7,3.36,3.86c.67.77,1.77,1.02,2.71.61l4.7-2.04-3.86,3.36c-.77.67-1.02,1.77-.61,2.71l2.04,4.7Z"/>
        <path class="cls-7" d="m365.36,635.31l-5.86.9c-1.17.18-2.09,1.1-2.28,2.28l-.9,5.86-.9-5.86c-.18-1.17-1.1-2.09-2.28-2.28l-5.86-.9,5.86-.9c1.17-.18,2.09-1.1,2.28-2.28l.9-5.86.9,5.86c.18,1.17,1.1,2.09,2.28,2.28l5.86.9Z"/>
        <path class="cls-7" d="m180.54,585.79l-5.06.78c-1.01.16-1.81.95-1.97,1.97l-.78,5.06-.78-5.06c-.16-1.01-.95-1.81-1.97-1.97l-5.06-.78,5.06-.78c1.01-.16,1.81-.95,1.97-1.97l.78-5.06.78,5.06c.16,1.01.95,1.81,1.97,1.97l5.06.78Z"/>
        <path class="cls-7" d="m781.95,504.24l-5.99.92c-1.2.19-2.14,1.13-2.33,2.33l-.92,5.99-.92-5.99c-.19-1.2-1.13-2.14-2.33-2.33l-5.99-.92,5.99-.92c1.2-.19,2.14-1.13,2.33-2.33l.92-5.99.92,5.99c.19,1.2,1.13,2.14,2.33,2.33l5.99.92Z"/>
      </g>
      <g>
        <polygon class="cls-1" points="660.62 580.34 467.92 580.34 477.68 556.06 492.18 519.98 616.45 521.29 645.02 559.48 660.62 580.34"/>
        <path class="cls-8" d="m669.17,584.63h-207.6l27.73-68.96,129.31,1.36,50.55,67.6Zm-194.92-8.57h177.8l-37.77-50.5-119.22-1.26-20.81,51.76Z"/>
        <path class="cls-8" d="m634.22,566.51c-5.95.02-11.89-.1-17.83-.14l-17.83-.36c-5.94-.09-11.89-.35-17.81-.49-5.93-.11-11.87-.18-17.81-.18-11.88-.17-23.76-.14-35.64-.24l-17.83-.16c-5.94-.12-11.89-.15-17.83-.31,5.94-.32,11.88-.49,17.82-.72l17.83-.43c11.89-.24,23.77-.25,35.66-.25,5.95.07,11.89.2,17.84.37,5.96.24,11.88.45,17.82.79l17.8.95c5.93.39,11.87.71,17.8,1.17Z"/>
        <path class="cls-8" d="m626.28,553.4c-5.46.06-10.93-.02-16.39-.03l-16.39-.25c-10.93-.18-21.83-.64-32.75-.96l-32.74-1.11c-5.46-.18-10.9-.34-16.36-.22-5.46-.02-10.92.04-16.39-.04,10.89-.68,21.83-1.49,32.77-1.36,10.94,0,21.86.29,32.78.63,10.92.37,21.84.88,32.74,1.45l16.36.84c5.45.35,10.91.64,16.36,1.06Z"/>
        <path class="cls-8" d="m618.07,542.1c-5.02-.03-10.03-.19-15.04-.28l-15.02-.5-30.04-.91-30.04-1.06c-5.01-.19-10.01-.34-15.01-.4-5.02-.18-10.04-.29-15.04-.53,10.03-.38,20.03-.72,30.08-.69,10.03,0,20.06.27,30.08.58,10.02.37,20.04.74,30.05,1.4l15.01,1.09c5,.44,10,.8,14.98,1.31Z"/>
        <path class="cls-8" d="m610.72,531.25c-9.08.93-18.22.57-27.31.43-9.1-.18-18.19-.49-27.28-.76l-27.27-.99c-4.54-.19-9.09-.35-13.63-.44-4.51-.16-9.16-.13-13.59-.43l13.58-.6c4.56-.12,9.11-.13,13.66-.14,9.11,0,18.21.23,27.3.51,9.1.33,18.19.69,27.28,1.26,4.54.28,9.08.55,13.62.76,4.54.25,9.08.53,13.63.41Z"/>
      </g>
      <polygon class="cls-1" points="756.96 550.16 564.27 550.16 588.54 489.8 607.12 489.99 712.8 491.12 756.96 550.16"/>
      <g class="cls-13">
        <path class="cls-8" d="m645.02,559.48h-69.36l-.74,2.57s-69.85-5.36-97.24-6l14.51-36.07,124.27,1.31,28.56,38.19Z"/>
      </g>
      <polygon class="cls-1" points="756.96 550.16 564.27 550.16 588.54 489.8 607.12 489.99 712.8 491.12 756.96 550.16"/>
      <path class="cls-8" d="m765.52,554.45h-207.6l27.73-68.96,129.31,1.36,50.55,67.6Zm-194.92-8.57h177.8l-37.77-50.5-119.22-1.26-20.81,51.76Z"/>
      <path class="cls-8" d="m730.57,536.33c-5.95.02-11.89-.1-17.83-.14l-17.83-.36c-5.94-.09-11.89-.35-17.81-.49-5.93-.11-11.87-.18-17.81-.18-11.88-.17-23.76-.14-35.64-.24l-17.83-.16c-5.94-.12-11.89-.15-17.83-.31,5.94-.32,11.88-.49,17.82-.72l17.83-.43c11.89-.24,23.77-.25,35.66-.25,5.95.07,11.89.2,17.84.37,5.96.24,11.88.45,17.82.79l17.8.95c5.93.39,11.87.71,17.8,1.17Z"/>
      <path class="cls-8" d="m722.63,523.22c-5.46.06-10.93-.02-16.39-.03l-16.39-.25c-10.93-.18-21.84-.64-32.75-.96l-32.74-1.11c-5.46-.18-10.9-.34-16.36-.22-5.46-.02-10.92.04-16.39-.04,10.89-.68,21.83-1.49,32.77-1.36,10.94,0,21.86.29,32.78.63,10.92.37,21.84.88,32.74,1.45l16.36.84c5.45.35,10.91.64,16.36,1.06Z"/>
      <path class="cls-8" d="m714.42,513.32c-5.02-.03-10.03-.19-15.04-.28l-15.02-.5-30.04-.91-30.04-1.06c-5.01-.19-10.01-.34-15.01-.4-5.02-.18-10.04-.29-15.04-.53,10.03-.38,20.03-.72,30.08-.69,10.03,0,20.06.27,30.08.58,10.02.37,20.04.74,30.05,1.4l15.01,1.09c5,.44,10,.8,14.98,1.31Z"/>
      <path class="cls-8" d="m707.07,503.87c-9.08.93-18.22.57-27.31.43-9.1-.18-18.19-.49-27.28-.76l-27.27-.99c-4.54-.19-9.09-.35-13.63-.44-4.51-.16-9.16-.13-13.59-.43l13.58-.6c4.56-.12,9.11-.13,13.66-.14,9.11,0,18.21.23,27.3.51,9.1.33,18.19.69,27.28,1.26,4.54.28,9.08.55,13.62.76,4.54.25,9.08.53,13.63.41Z"/>
      <path class="cls-8" d="m3.72,473.55l26.4-.48,26.4-.36,52.8-.71,105.6-.88c35.2-.36,70.4-.38,105.6-.57l105.6-.17,105.6.17c35.2.19,70.4.21,105.6.56l105.6.88,52.8.71,26.4.36,26.4.48c2.09.04,3.76,1.77,3.72,3.86-.04,2.04-1.69,3.68-3.72,3.72l-26.4.48-26.4.36-52.8.71-105.6.88c-35.2.36-70.4.38-105.6.56l-105.6.17-105.6-.17c-35.2-.18-70.4-.21-105.6-.57l-105.6-.88-52.8-.71-26.4-.36-26.4-.48c-2.09-.04-3.76-1.77-3.72-3.86.04-2.05,1.69-3.68,3.72-3.72Z"/>
      <path class="cls-2" d="m360.72,540.61l60.62-56.36c.24-.23.38-.54.38-.87v-10.12c0-.69-.58-1.23-1.26-1.19l-193.9,11.83-89.99,56.71h224.16Z"/>
      <g class="cls-12">
        <path class="cls-9" d="m421.72,478.68v4.7c0,.33-.14.65-.39.88l-60.62,56.35h-224.15l16.4-10.34h203.66l65.1-51.6Z"/>
      </g>
      <path class="cls-8" d="m362.4,544.9H121.72l103.48-65.2,195-11.9c1.51-.08,2.99.45,4.09,1.48,1.1,1.03,1.72,2.48,1.72,3.99v10.12c0,1.51-.63,2.97-1.74,4l-61.86,57.51Zm-211.01-8.57h207.64l58.4-54.29v-5.49l-189.53,11.57-76.51,48.21Z"/>
      <polygon class="cls-2" points="360.72 516.79 421.72 471.99 226.55 471.99 136.56 516.79 360.72 516.79"/>
      <polygon class="cls-1" points="344.99 511.13 384.67 481.99 257.71 481.99 199.16 511.13 344.99 511.13"/>
      <path class="cls-8" d="m361.64,519.6H124.62l101.27-50.41h192.19c1.73,0,3.26,1.11,3.8,2.75.54,1.65-.04,3.44-1.43,4.47l-58.81,43.19Zm-213.14-5.62h211.3l53.35-39.18h-185.94l-78.71,39.18Z"/>
      <path class="cls-2" d="m354.94,543.26H99.94c-1.65,0-3.16-.67-4.25-1.8-.72-.73-1.25-1.67-1.52-2.73l-42.89-174.06c-1.85-7.51,3.82-14.76,11.56-14.76h238.06c7.84,0,14.71,5.11,17.03,12.51.12.35.22.72.31,1.08l42.47,172.37c.93,3.75-1.92,7.38-5.77,7.38Z"/>
      <path class="cls-9" d="m354.94,543.26H99.94c-1.65,0-3.16-.67-4.25-1.8,31.26,1.51,139.92,2.37,191.81-53.61,33.22-35.85,33.76-92.01,30.44-125.43.12.35.22.72.31,1.08l42.47,172.37c.93,3.75-1.92,7.38-5.77,7.38Z"/>
      <g class="cls-13">
        <path class="cls-1" d="m64.32,369.9l42.72,173.36h-7.09c-2.74,0-5.12-1.87-5.77-4.53l-42.89-174.06c-1.85-7.51,3.82-14.76,11.56-14.76h238.06c8.01,0,15.02,5.34,17.18,13.01-.75-.1-1.5-.15-2.27-.15H69.91c-3.74,0-6.49,3.5-5.59,7.14Z"/>
      </g>
      <path class="cls-8" d="m354.94,547.54H99.95c-4.73,0-8.81-3.2-9.94-7.79l-42.89-174.06c-1.2-4.87-.11-9.92,2.98-13.86,3.09-3.94,7.74-6.21,12.75-6.21h238.06c10.22,0,19.06,6.93,21.51,16.85l42.47,172.38c.76,3.08.07,6.27-1.88,8.77-1.95,2.49-4.89,3.92-8.06,3.92ZM62.84,354.2c-2.36,0-4.55,1.07-6,2.92-1.46,1.86-1.97,4.24-1.4,6.53l42.89,174.06c.19.75.85,1.27,1.62,1.27h254.99c.71,0,1.13-.4,1.31-.64.19-.24.48-.74.31-1.43l-42.47-172.38c-1.5-6.08-6.92-10.33-13.19-10.33H62.84Z"/>
      <g class="cls-13">
        <polygon class="cls-8" points="607.12 489.99 589.74 550.16 564.27 550.16 588.54 489.8 607.12 489.99"/>
      </g>
      <path class="cls-1" d="m451.17,487.24l-69.29,62.54s61.76-3.18,90.42-3.1c23.37.07,101.54,6.05,101.54,6.05l18.18-62.93-140.85-2.57Z"/>
      <path class="cls-8" d="m576.99,557.27l-3.48-.27c-.78-.06-78.28-5.97-101.23-6.04-28.18-.06-89.57,3.06-90.18,3.09l-12.05.62,79.5-71.75,148.13,2.7-20.7,71.65Zm-105.78-14.88c.37,0,.74,0,1.1,0,20.72.06,82.79,4.63,98.38,5.8l15.66-54.21-133.56-2.44-59.12,53.36c19.14-.9,56.55-2.52,77.54-2.52Z"/>
      <path class="cls-8" d="m488.4,488.1c.03,9.52-1.83,18.89-5.4,27.14l-1.48,3.42c-1.69,3.92-5.95,3.92-7.64,0l-1.53-3.54c-3.53-8.17-5.39-17.45-5.39-26.88v-97.37c0-3.35,4.73-6.07,10.58-6.07s10.57,2.72,10.57,6.07c0,.16,0,.32-.04.48l.32,96.76Z"/>
      <path class="cls-8" d="m562.54,534.85c-5.88-.1-11.75-.32-17.62-.48l-17.6-.7c-11.72-.58-23.46-.95-35.19-1.29-11.73-.48-23.47-.83-35.2-1.2-5.87-.22-11.71-.26-17.6-.37-5.88-.17-11.75-.28-17.62-.52,11.75-.39,23.47-.75,35.24-.74,11.76.03,23.5.41,35.24.72l17.61.75c5.87.24,11.73.57,17.59,1.03l17.58,1.29c5.85.51,11.71.94,17.56,1.51Z"/>
      <path class="cls-8" d="m568.76,524.48c-7.41-.08-14.8-.3-22.19-.65-3.69-.15-7.38-.37-11.07-.56-3.69-.21-7.38-.47-11.06-.62l-22.14-1.08c-7.38-.32-14.76-.75-22.16-.95,7.38-.61,14.8-.74,22.2-.69,7.4.03,14.8.27,22.2.62,7.4.4,14.76,1.02,22.14,1.65,7.37.63,14.73,1.39,22.08,2.29Z"/>
      <path class="cls-1" d="m587.6,296.56s19.63,43.19,22.94,92.2c3.37,49.92-1.51,120.88-117.76,111.26-40.75-3.37-38.77-20.69-40.28-41.12-1.87-25.31,1.02-54.37,30.59-55.46,53.44-1.96,69.4-13.61,77-46.38"/>
      <g class="cls-13">
        <path class="cls-8" d="m610.98,416.62c-2.26,44.62-22.48,91.32-118.19,83.41-40.76-3.37-38.77-20.69-40.28-41.12-1.03-13.85-.62-28.83,4.8-39.73.05,3.01.2,6.02.43,8.98,1.51,20.42-.47,37.74,40.27,41.11,73.45,6.09,102.44-20.01,112.98-52.65Z"/>
      </g>
      <path class="cls-8" d="m547.24,379.27c.88-1.85,1.93-3.55,2.94-5.32,1.01-1.77,2.12-3.53,3.15-5.39,2.09-3.7,4-7.63,6.26-11.61.14-.25.46-.34.71-.2.16.09.25.26.27.43.26,4.6-.24,9.16-1.34,13.68-.57,2.25-1.27,4.51-2.31,6.64-1.04,2.13-2.3,4.19-4.01,5.91-1.38,1.39-3.63,1.4-5.02.02-1.1-1.09-1.34-2.72-.7-4.05l.05-.11Z"/>
      <path class="cls-8" d="m512.91,505.18c-6.53,0-13.35-.29-20.48-.88-41.57-3.44-42.77-22.46-43.92-40.86-.09-1.39-.18-2.79-.28-4.21-1.75-23.63,1.64-39.86,10.36-49.6,5.87-6.56,14.07-10.08,24.35-10.46,34-1.25,51.93-6.48,61.89-18.08,1.54-1.8,4.25-2,6.04-.46,1.8,1.54,2,4.25.46,6.04-11.69,13.61-31.41,19.71-68.07,21.06-7.98.29-13.96,2.78-18.28,7.61-7.08,7.91-9.76,22.06-8.2,43.25.11,1.45.2,2.89.29,4.31,1.13,18.08,1.88,30.02,36.07,32.85,42.67,3.53,73.58-3.82,91.89-21.85,22.41-22.07,23.12-56.94,21.24-84.85-3.22-47.69-22.37-90.29-22.56-90.72-.98-2.15-.03-4.7,2.13-5.67,2.16-.98,4.7-.03,5.68,2.13.81,1.79,19.99,44.46,23.31,93.69,2.01,29.74,1.12,67.02-23.77,91.53-16.99,16.73-43.22,25.17-78.13,25.17Z"/>
      <path class="cls-8" d="m594.6,473.7c-.06,0-.12,0-.19,0-2.36-.1-4.2-2.1-4.1-4.47,3.05-70.47-40.43-81.91-42.28-82.36-2.29-.56-3.71-2.87-3.16-5.17.55-2.29,2.85-3.71,5.14-3.17.55.13,13.58,3.32,26.11,16.36,11.34,11.8,24.5,34.35,22.75,74.71-.1,2.3-2,4.1-4.28,4.1Z"/>
      <g id="simbolo">
        <path class="cls-10" d="m214.55,462.68c-1.21,0-2.39-.43-3.36-1.26l-31.51-26.89c-1.46-1.25-2.11-3.12-1.73-5.01.38-1.89,1.71-3.36,3.54-3.94l37.23-11.73c1.73-.54,3.58-.17,4.95,1.01,1.38,1.17,2.04,2.94,1.77,4.73l-5.73,38.62c-.28,1.9-1.53,3.44-3.33,4.12-.61.23-1.24.34-1.85.34Zm5.77-46.41c-.26,0-.53.04-.79.12l-37.23,11.73c-.9.28-1.55,1.01-1.74,1.93s.13,1.85.85,2.46l31.51,26.89c.72.61,1.68.78,2.56.45.89-.33,1.5-1.09,1.64-2.02l5.73-38.62c.13-.89-.19-1.74-.87-2.33-.48-.41-1.05-.62-1.65-.62Z"/>
        <path class="cls-10" d="m179.19,470.34c-.78,0-1.54-.28-2.16-.8-.88-.75-1.3-1.88-1.13-3.03l.03-.24.11-.21c.06-.11,6.18-11.25,12.46-22.28,3.69-6.49,6.71-11.67,8.97-15.41,1.35-2.23,2.45-3.98,3.27-5.18,1.42-2.08,1.9-2.47,2.53-2.58.42-.08.85.04,1.17.31l16.28,13.89c.32.27.5.68.49,1.11-.01.63-.32,1.18-2.15,2.9-1.06,1-2.61,2.36-4.6,4.04-3.34,2.83-7.98,6.62-13.81,11.29-9.91,7.93-19.94,15.73-20.04,15.81l-.19.15-.23.07c-.33.1-.67.16-1.01.16Zm-.67-3.26c.03.23.17.38.24.44.07.06.24.18.47.16,1.53-1.19,10.21-7.96,18.99-14.97,5.65-4.52,10.24-8.25,13.63-11.1,3.81-3.2,5.5-4.77,6.25-5.54l-14.48-12.35c-.64.86-1.93,2.78-4.49,7.04-2.28,3.8-5.25,8.92-8.82,15.21-5.55,9.78-10.86,19.41-11.8,21.11Z"/>
      </g>
    </g>
  </g>
</svg>