<?xml version="1.0" encoding="UTF-8"?>
<svg id="Camada_2" data-name="Camada 2" xmlns="http://www.w3.org/2000/svg" xmlns:xlink="http://www.w3.org/1999/xlink" viewBox="0 0 1035.98 564.1">
  <defs>
    <style>
      .cls-1 {
        fill: #fff;
      }

      .cls-2 {
        stroke: url(#Gradiente_sem_nome_15);
      }

      .cls-2, .cls-3 {
        fill: none;
        stroke-miterlimit: 10;
        stroke-width: 35px;
      }

      .cls-3 {
        stroke: url(#Gradiente_sem_nome_15-2);
      }
    </style>
    <linearGradient id="Gradiente_sem_nome_15" data-name="Gradiente sem nome 15" x1="-300.65" y1="290.85" x2="200.11" y2="290.85" gradientTransform="translate(550.88 -12.78) rotate(40.47)" gradientUnits="userSpaceOnUse">
      <stop offset="0" stop-color="#5f12e0"/>
      <stop offset=".19" stop-color="#6817e0"/>
      <stop offset=".49" stop-color="#8124e1"/>
      <stop offset=".58" stop-color="#8a29e2"/>
      <stop offset=".99" stop-color="#6210e1"/>
    </linearGradient>
    <linearGradient id="Gradiente_sem_nome_15-2" data-name="Gradiente sem nome 15" x1="-188.1" y1="505.86" x2="87.56" y2="505.86" xlink:href="#Gradiente_sem_nome_15"/>
  </defs>
  <g id="Camada_1-2" data-name="Camada 1">
    <g id="Logo">
      <g id="ALTO">
        <path id="A" class="cls-1" d="M624.87,269.68h-54.05l-18.2,133.25h-29.43L582.06,.5h31.04l61.01,402.43h-28.9l-20.34-133.25Zm-49.77-31.57h44.95l-22.48-155.73-22.48,155.73Z"/>
        <path id="L" class="cls-1" d="M705.79,56h27.29V373.5h91.51v29.43h-118.8V56Z"/>
        <path id="T" class="cls-1" d="M884.27,402.93h-27.29V29.93s-150.99,0-150.99,0V.5h178.29V402.93Z"/>
        <path id="O" class="cls-1" d="M1035.98,358.97c0,10.73-2.89,20.66-8.68,29.78s-14.47,14.04-26.04,14.76h-48.28c-6.51-.36-12.11-1.97-16.81-4.83s-8.5-6.53-11.39-11c-2.89-4.47-4.97-9.48-6.24-15.02-1.27-5.54-1.9-11-1.9-16.37V47.22c0-12.16,2.89-23.07,8.68-32.73,5.79-9.66,15.55-14.49,29.29-14.49h43.39c11.57,1.07,20.79,5.99,27.66,14.76,6.87,8.76,10.31,18.33,10.31,28.71V358.97Zm-87.33,7.51c3.25,5.01,9.58,7.51,18.98,7.51h24.95c6.87,0,11.3-2.42,13.29-7.24,1.99-4.83,2.98-12.07,2.98-21.73V58.49c0-9.66-.99-16.9-2.98-21.73-1.99-4.83-6.42-7.24-13.29-7.24h-33.63c-4.34,0-7.96,2.59-10.85,7.78-2.89,5.19-4.34,12.07-4.34,20.66V345.02c0,9.3,1.63,16.45,4.88,21.46Z"/>
      </g>
      <g id="simbolo">
        <path class="cls-2" d="M347.41,450.18L49.2,195.72c-22-18.77-14.75-54.42,12.83-63.11L414.43,21.61c25.93-8.17,51.46,13.62,47.47,40.51l-54.18,365.46c-4.24,28.61-38.31,41.38-60.31,22.6Z"/>
        <path class="cls-3" d="M267.33,86.04l154.09,131.48c11.37,9.7,7.62,28.12-6.63,32.61L42.24,530.68c-13.4,4.22-26.59-7.04-24.53-20.93L236.16,97.72c2.19-14.78,19.79-21.38,31.16-11.68Z"/>
      </g>
      <g>
        <path class="cls-1" d="M562.87,464.45c0,8.4-6.37,13.23-18.76,13.23h-23.38v-49h21.98c11.27,0,17.57,4.76,17.57,12.67,0,5.32-2.73,9.03-6.58,10.92,5.53,1.54,9.17,5.67,9.17,12.18Zm-35.14-30.1v15.68h14.35c7.14,0,11.2-2.66,11.2-7.84s-4.06-7.84-11.2-7.84h-14.35Zm28.07,29.54c0-5.67-4.2-8.19-11.97-8.19h-16.1v16.31h16.1c7.77,0,11.97-2.45,11.97-8.12Z"/>
        <path class="cls-1" d="M595.48,440.23v6.51c-.56-.07-1.05-.07-1.54-.07-7.21,0-11.69,4.41-11.69,12.53v18.48h-6.72v-37.1h6.44v6.23c2.38-4.34,7-6.58,13.51-6.58Z"/>
        <path class="cls-1" d="M635.87,455.28v22.4h-6.37v-4.9c-2.24,3.36-6.37,5.32-12.18,5.32-8.4,0-13.72-4.48-13.72-10.92,0-5.95,3.85-10.85,14.91-10.85h10.64v-1.33c0-5.67-3.29-8.96-9.94-8.96-4.41,0-8.89,1.54-11.76,3.99l-2.8-5.04c3.85-3.08,9.38-4.76,15.33-4.76,10.15,0,15.89,4.9,15.89,15.05Zm-6.72,11.06v-5.18h-10.36c-6.65,0-8.54,2.59-8.54,5.74,0,3.71,3.08,6.02,8.19,6.02s9.03-2.31,10.71-6.58Z"/>
        <path class="cls-1" d="M686.34,456.33v21.35h-6.72v-20.58c0-7.28-3.64-10.85-10.01-10.85-7.14,0-11.76,4.27-11.76,12.32v19.11h-6.72v-37.1h6.44v5.6c2.73-3.78,7.49-5.95,13.37-5.95,9.03,0,15.4,5.18,15.4,16.1Z"/>
        <path class="cls-1" d="M736.81,425.73v51.95h-6.44v-5.88c-3.01,4.2-7.77,6.3-13.23,6.3-10.85,0-18.76-7.63-18.76-18.97s7.91-18.9,18.76-18.9c5.25,0,9.87,1.96,12.95,5.95v-20.44h6.72Zm-6.65,33.39c0-7.91-5.39-13.02-12.46-13.02s-12.53,5.11-12.53,13.02,5.39,13.09,12.53,13.09,12.46-5.18,12.46-13.09Z"/>
        <path class="cls-1" d="M751.16,429.09c0-2.45,1.96-4.41,4.55-4.41s4.55,1.89,4.55,4.27c0,2.52-1.89,4.48-4.55,4.48s-4.55-1.89-4.55-4.34Zm1.19,11.48h6.72v37.1h-6.72v-37.1Z"/>
        <path class="cls-1" d="M809.89,456.33v21.35h-6.72v-20.58c0-7.28-3.64-10.85-10.01-10.85-7.14,0-11.76,4.27-11.76,12.32v19.11h-6.72v-37.1h6.44v5.6c2.73-3.78,7.49-5.95,13.37-5.95,9.03,0,15.4,5.18,15.4,16.1Z"/>
        <path class="cls-1" d="M860.85,440.58v32.06c0,13.09-6.65,19.04-19.25,19.04-6.79,0-13.65-1.89-17.71-5.53l3.22-5.18c3.43,2.94,8.82,4.83,14.28,4.83,8.75,0,12.74-4.06,12.74-12.46v-2.94c-3.22,3.85-8.05,5.74-13.37,5.74-10.71,0-18.83-7.28-18.83-17.99s8.12-17.92,18.83-17.92c5.53,0,10.57,2.03,13.72,6.09v-5.74h6.37Zm-6.58,17.57c0-7.21-5.32-12.04-12.74-12.04s-12.81,4.83-12.81,12.04,5.32,12.11,12.81,12.11,12.74-4.97,12.74-12.11Z"/>
        <path class="cls-1" d="M934.91,478.45l-6.51-6.51c-4.27,4.13-9.87,6.3-16.38,6.3-9.94,0-17.15-5.25-17.15-12.74,0-6.02,3.43-10.22,11.9-15.05-4.41-4.41-5.88-7.56-5.88-11.2,0-6.58,5.18-10.99,13.23-10.99,7.42,0,12.18,3.85,12.18,10.22,0,4.97-2.94,8.54-10.43,12.81l12.11,12.04c1.33-2.52,2.38-5.46,3.01-8.89l5.39,1.75c-.84,4.34-2.31,8.12-4.27,11.2l6.58,6.58-3.78,4.48Zm-10.5-10.43l-13.93-13.86c-6.86,3.85-9.03,6.72-9.03,10.64,0,4.69,4.41,7.84,10.99,7.84,4.69,0,8.82-1.54,11.97-4.62Zm-17.29-28.91c0,2.52,.98,4.34,4.97,8.4,6.44-3.64,8.54-5.88,8.54-8.96s-2.31-5.39-6.51-5.39c-4.41,0-7,2.45-7,5.95Z"/>
        <path class="cls-1" d="M516.73,523.91c0-14.49,11.06-25.06,25.97-25.06,7.56,0,14.14,2.59,18.62,7.63l-4.55,4.41c-3.78-3.99-8.4-5.81-13.79-5.81-11.06,0-19.25,7.98-19.25,18.83s8.19,18.83,19.25,18.83c5.39,0,10.01-1.89,13.79-5.88l4.55,4.41c-4.48,5.04-11.06,7.7-18.69,7.7-14.84,0-25.9-10.57-25.9-25.06Z"/>
        <path class="cls-1" d="M568.18,529.86c0-11.06,8.19-18.9,19.32-18.9s19.25,7.84,19.25,18.9-8.12,18.97-19.25,18.97-19.32-7.91-19.32-18.97Zm31.78,0c0-7.91-5.32-13.02-12.46-13.02s-12.53,5.11-12.53,13.02,5.39,13.09,12.53,13.09,12.46-5.18,12.46-13.09Z"/>
        <path class="cls-1" d="M680.47,527.06v21.35h-6.72v-20.58c0-7.28-3.5-10.85-9.59-10.85-6.72,0-11.13,4.27-11.13,12.32v19.11h-6.72v-20.58c0-7.28-3.5-10.85-9.59-10.85-6.72,0-11.13,4.27-11.13,12.32v19.11h-6.72v-37.1h6.44v5.53c2.66-3.78,7.21-5.88,12.81-5.88s10.43,2.24,12.88,6.86c2.8-4.2,7.98-6.86,14.28-6.86,9.03,0,15.19,5.18,15.19,16.1Z"/>
        <path class="cls-1" d="M730.24,511.31v37.1h-6.37v-5.6c-2.73,3.85-7.35,6.02-12.6,6.02-9.59,0-15.96-5.25-15.96-16.17v-21.35h6.72v20.58c0,7.28,3.64,10.92,10.01,10.92,7,0,11.48-4.34,11.48-12.32v-19.18h6.72Z"/>
        <path class="cls-1" d="M781.05,527.06v21.35h-6.72v-20.58c0-7.28-3.64-10.85-10.01-10.85-7.14,0-11.76,4.27-11.76,12.32v19.11h-6.72v-37.1h6.44v5.6c2.73-3.78,7.49-5.95,13.37-5.95,9.03,0,15.4,5.18,15.4,16.1Z"/>
        <path class="cls-1" d="M795.12,499.83c0-2.45,1.96-4.41,4.55-4.41s4.55,1.89,4.55,4.27c0,2.52-1.89,4.48-4.55,4.48s-4.55-1.89-4.55-4.34Zm1.19,11.48h6.72v37.1h-6.72v-37.1Z"/>
        <path class="cls-1" d="M815.21,529.86c0-11.06,8.19-18.9,19.6-18.9,6.65,0,12.18,2.73,15.12,7.91l-5.11,3.29c-2.38-3.64-6.02-5.32-10.08-5.32-7.28,0-12.74,5.11-12.74,13.02s5.46,13.09,12.74,13.09c4.06,0,7.7-1.68,10.08-5.32l5.11,3.22c-2.94,5.18-8.47,7.98-15.12,7.98-11.41,0-19.6-7.91-19.6-18.97Z"/>
        <path class="cls-1" d="M890.81,526.01v22.4h-6.37v-4.9c-2.24,3.36-6.37,5.32-12.18,5.32-8.4,0-13.72-4.48-13.72-10.92,0-5.95,3.85-10.85,14.91-10.85h10.64v-1.33c0-5.67-3.29-8.96-9.94-8.96-4.41,0-8.89,1.54-11.76,3.99l-2.8-5.04c3.85-3.08,9.38-4.76,15.33-4.76,10.15,0,15.89,4.9,15.89,15.05Zm-6.72,11.06v-5.18h-10.36c-6.65,0-8.54,2.59-8.54,5.74,0,3.71,3.08,6.02,8.19,6.02s9.03-2.31,10.71-6.58Z"/>
        <path class="cls-1" d="M932.46,537.63l5.11,3.22c-2.94,5.18-8.4,7.98-14.98,7.98l-.84,3.08c4.06,.42,6.09,2.73,6.09,5.81,0,3.92-3.43,6.37-8.68,6.37-2.45,0-4.48-.49-6.23-1.54l1.47-3.43c1.47,.84,3.01,1.19,4.76,1.19,2.66,0,3.92-1.05,3.92-2.8,0-1.61-1.19-2.73-3.99-2.73h-1.89l1.61-6.23c-9.45-1.54-15.96-8.82-15.96-18.69,0-11.06,8.19-18.9,19.6-18.9,6.65,0,12.18,2.73,15.12,7.91l-5.11,3.29c-2.38-3.64-6.02-5.32-10.08-5.32-7.28,0-12.74,5.11-12.74,13.02s5.46,13.09,12.74,13.09c4.06,0,7.7-1.68,10.08-5.32Z"/>
        <path class="cls-1" d="M978.45,526.01v22.4h-6.37v-4.9c-2.24,3.36-6.37,5.32-12.18,5.32-8.4,0-13.72-4.48-13.72-10.92,0-5.95,3.85-10.85,14.91-10.85h10.64v-1.33c0-5.67-3.29-8.96-9.94-8.96-4.41,0-8.89,1.54-11.76,3.99l-2.8-5.04c3.85-3.08,9.38-4.76,15.33-4.76,10.15,0,15.89,4.9,15.89,15.05Zm-23.38-20.65h-3.78c.14-5.18,2.8-8.54,6.86-8.54,4.48,0,6.72,4.76,9.31,4.76,2.03,0,3.43-1.61,3.57-4.2h3.78c-.14,4.97-2.8,8.33-6.86,8.33-4.48,0-6.72-4.69-9.31-4.69-2.03,0-3.43,1.61-3.57,4.34Zm16.66,31.71v-5.18h-10.36c-6.65,0-8.54,2.59-8.54,5.74,0,3.71,3.08,6.02,8.19,6.02s9.03-2.31,10.71-6.58Z"/>
        <path class="cls-1" d="M990.49,529.86c0-11.06,8.19-18.9,19.32-18.9s19.25,7.84,19.25,18.9-8.12,18.97-19.25,18.97-19.32-7.91-19.32-18.97Zm31.78,0c0-7.91-5.32-13.02-12.46-13.02s-12.53,5.11-12.53,13.02,5.39,13.09,12.53,13.09,12.46-5.18,12.46-13.09Z"/>
      </g>
    </g>
  </g>
</svg>