<?xml version="1.0" encoding="utf-8"?>
<!-- Generator: Adobe Illustrator 27.0.0, SVG Export Plug-In . SVG Version: 6.00 Build 0)  -->
<svg version="1.1" id="Camada_1" xmlns="http://www.w3.org/2000/svg" xmlns:xlink="http://www.w3.org/1999/xlink" x="0px" y="0px"
	 viewBox="0 0 1975.6 738.6" style="enable-background:new 0 0 1975.6 738.6;" xml:space="preserve">
<style type="text/css">
	.st0{clip-path:url(#SVGID_00000126296410577781981830000015435186606501689771_);}
	.st1{clip-path:url(#SVGID_00000178201964700256176500000017026112601988883084_);}
	.st2{fill:url(#SVGID_00000091702406093263039570000001671070735518615193_);}
	.st3{fill:url(#SVGID_00000182519197261445296280000016529994162413585032_);}
	.st4{fill:url(#SVGID_00000005956957914201370390000005773145846692776380_);}
	.st5{opacity:0.7;}
	.st6{fill:#3DDCCD;}
	.st7{opacity:0.1;fill:#6988F9;enable-background:new    ;}
	.st8{fill:#CBFEFE;}
	.st9{fill:#FFFFFF;}
	.st10{fill:url(#SVGID_00000151509396006835032560000008495568053038625974_);}
</style>
<g>
	<g>
		<g>
			<defs>
				<rect id="SVGID_1_" x="-3.5" y="-3" width="1979.2" height="740.1"/>
			</defs>
			<clipPath id="SVGID_00000142882254922832196030000002521479839876032399_">
				<use xlink:href="#SVGID_1_"  style="overflow:visible;"/>
			</clipPath>
			<g style="clip-path:url(#SVGID_00000142882254922832196030000002521479839876032399_);">
				<g>
					<g>
						<defs>
							<rect id="SVGID_00000098222507048289869250000012277972461820897955_" x="-49.6" y="-5.5" width="2223" height="741.5"/>
						</defs>
						<clipPath id="SVGID_00000114793315973921929640000003716043429561430706_">
							<use xlink:href="#SVGID_00000098222507048289869250000012277972461820897955_"  style="overflow:visible;"/>
						</clipPath>
						<g style="clip-path:url(#SVGID_00000114793315973921929640000003716043429561430706_);">
							<g>
								
									<linearGradient id="SVGID_00000004503984418700926260000005047040520833849244_" gradientUnits="userSpaceOnUse" x1="2110.4338" y1="319.5471" x2="-266.7126" y2="421.1575">
									<stop  offset="0.29" style="stop-color:#A050FF"/>
									<stop  offset="0.47" style="stop-color:#6888F7"/>
									<stop  offset="0.64" style="stop-color:#3CB7F1"/>
									<stop  offset="0.79" style="stop-color:#1BD8ED"/>
									<stop  offset="0.92" style="stop-color:#08ECEA"/>
									<stop  offset="1" style="stop-color:#01F4EA"/>
								</linearGradient>
								<path style="fill:url(#SVGID_00000004503984418700926260000005047040520833849244_);" d="M73.3-12.7
									C112.6,12.2,89,100.4,242.2,75.7c202.1-19.4,76.8,99.7,145.5,141c65.6,39.5,156.3,4.9,206.1,68.1
									c34.7,43.8,2.4,98.7,44.1,130.8c11.9,9.2,19,8.1,84.6,15.2c118.7,12.8,133.6,20.7,143.5,26.5c33.6,19.6,51.2,50.1,71.4,78.1
									s47.7,56.5,89,64.8c62,12.5,133.2-24.7,189-1.1c44.2,18.7,53.6,66.8,98.3,84.7c33.2,13.3,74.3,5.3,108.9-5.9
									s69.4-25.6,107.1-24.4c75.2,2.3,135.5,65.9,209.1,53.8c81.5-13.4,99.4-99.2,153.1-137.8c37.9-27.3,91.7-42,144.4-39.5
									c52.7,2.6,103.5,22.2,136.4,52.9v153.2h2.6V-12.7H73.3z"/>
								<g>
									<g>
										
											<linearGradient id="SVGID_00000053519623629867693980000011041417499549103011_" gradientUnits="userSpaceOnUse" x1="2209.5789" y1="637.1821" x2="2135.3948" y2="709.2848">
											<stop  offset="0" style="stop-color:#A050FF"/>
											<stop  offset="0.26" style="stop-color:#6888F7"/>
											<stop  offset="0.5" style="stop-color:#3CB7F1"/>
											<stop  offset="0.71" style="stop-color:#1BD8ED"/>
											<stop  offset="0.88" style="stop-color:#08ECEA"/>
											<stop  offset="1" style="stop-color:#01F4EA"/>
										</linearGradient>
										<path style="fill:url(#SVGID_00000053519623629867693980000011041417499549103011_);" d="M2172.7,704.6
											c0.2,0,0.4-0.1,0.6-0.1l-0.6-63.5V704.6z"/>
										
											<linearGradient id="SVGID_00000100360041408509581410000007460733108988989615_" gradientUnits="userSpaceOnUse" x1="2063.2578" y1="-295.2573" x2="915.9269" y2="819.8848">
											<stop  offset="0" style="stop-color:#A050FF"/>
											<stop  offset="0.26" style="stop-color:#6888F7"/>
											<stop  offset="0.5" style="stop-color:#3CB7F1"/>
											<stop  offset="0.71" style="stop-color:#1BD8ED"/>
											<stop  offset="0.88" style="stop-color:#08ECEA"/>
											<stop  offset="1" style="stop-color:#01F4EA"/>
										</linearGradient>
										<path style="fill:url(#SVGID_00000100360041408509581410000007460733108988989615_);" d="M827,60.7
											c29.1,33.4,62.2,67.3,113.3,87.5c46.7,18.5,104.7,24,149.3,44.5c126.5,58.1,80.4,197.3,198.5,262
											c105.5,57.8,278.1,22.4,398.8,66.7c66,24.3,106.7,68.8,151.6,109.1c16.3-22.8,32-45.6,53.4-61
											c37.9-27.3,91.7-42,144.4-39.5c52.4,2.6,102.9,22,135.8,52.4L2171,461c-17.6-1.7-35-4.5-52-8.8
											c-103-26.1-153.8-98.4-189.4-165c-35.6-66.5-72.3-139.7-165.3-178.1c-91.6-37.9-220.6-33.3-298.2-82.1
											c-18.5-11.6-32.3-25.2-44.2-39.8l-663.6,2.4C785.3,11.3,805.8,36.4,827,60.7z"/>
									</g>
									<g class="st5">
										<path class="st6" d="M1918,487.9c0,3.3-4.3,5.9-9.6,5.9s-9.6-2.7-9.6-5.9c0-3.3,4.3-5.9,9.6-5.9S1918,484.6,1918,487.9z"
											/>
										<ellipse class="st6" cx="2019.2" cy="160.5" rx="6.5" ry="4"/>
										<path class="st6" d="M382.5,139.7c0,2.6-3.4,4.7-7.7,4.7c-4.2,0-7.7-2.1-7.7-4.7c0-2.6,3.4-4.7,7.7-4.7
											S382.5,137.1,382.5,139.7z"/>
										<path class="st6" d="M760.8,180.4c0,1.3-1.7,2.4-3.8,2.4s-3.8-1.1-3.8-2.4c0-1.3,1.7-2.4,3.8-2.4S760.8,179.1,760.8,180.4
											z"/>
										<path class="st6" d="M958.1,20.3c0,1.2-1.6,2.3-3.6,2.3s-3.6-1-3.6-2.3s1.6-2.3,3.6-2.3S958.1,19,958.1,20.3z"/>
										<path class="st6" d="M1000.4,285.6c0,3.7-4.8,6.7-10.8,6.7s-10.8-3-10.8-6.7s4.8-6.7,10.8-6.7S1000.4,282,1000.4,285.6z"
											/>
										<path class="st6" d="M1302.4,248.9c0,1.9-2.4,3.3-5.4,3.3s-5.4-1.5-5.4-3.3s2.4-3.3,5.4-3.3S1302.4,247.1,1302.4,248.9z"
											/>
										<path class="st6" d="M1260.2,449.4c0,2.6-3.4,4.7-7.6,4.7s-7.6-2.1-7.6-4.7s3.4-4.7,7.6-4.7
											C1256.8,444.7,1260.2,446.8,1260.2,449.4z"/>
										<path class="st6" d="M511,156.5c0,1.5-1.9,2.7-4.3,2.7s-4.3-1.2-4.3-2.7s1.9-2.7,4.3-2.7S511,155,511,156.5z"/>
										<path class="st6" d="M1682.6,497.9c0,2.2-2.9,4-6.5,4s-6.5-1.8-6.5-4s2.9-4,6.5-4C1679.6,493.8,1682.6,495.7,1682.6,497.9
											z"/>
										<path class="st6" d="M1388.2,596.3c0,2.6-3.4,4.7-7.6,4.7s-7.6-2.1-7.6-4.7c0-2.6,3.4-4.7,7.6-4.7
											C1384.8,591.7,1388.2,593.8,1388.2,596.3z"/>
										<path class="st6" d="M1615.6,656.9c0,1.6-2.1,2.9-4.7,2.9s-4.7-1.3-4.7-2.9c0-1.6,2.1-2.9,4.7-2.9
											C1613.6,654,1615.6,655.3,1615.6,656.9z"/>
										<ellipse class="st6" cx="1117.2" cy="549.9" rx="4.1" ry="2.5"/>
										<path class="st6" d="M1493.9,642c0,0.8-1,1.4-2.3,1.4s-2.3-0.6-2.3-1.4c0-0.8,1-1.4,2.3-1.4S1493.9,641.2,1493.9,642z"/>
										<path class="st6" d="M1138.4,557.9c0,0.9-1.2,1.7-2.7,1.7s-2.7-0.7-2.7-1.7c0-0.9,1.2-1.7,2.7-1.7
											C1137.2,556.3,1138.4,557,1138.4,557.9z"/>
										<path class="st6" d="M1179.9,342.2c0,2.3-3,4.1-6.7,4.1s-6.7-1.9-6.7-4.1c0-2.3,3-4.1,6.7-4.1
											C1176.9,338,1179.9,339.9,1179.9,342.2z"/>
										<path class="st6" d="M1631.3,143.3c0,2-2.6,3.6-5.8,3.6c-3.2,0-5.8-1.6-5.8-3.6s2.6-3.6,5.8-3.6
											C1628.7,139.7,1631.3,141.3,1631.3,143.3z"/>
										<path class="st6" d="M768.9,190.9c0,0.6-0.8,1.1-1.8,1.1s-1.8-0.5-1.8-1.1s0.8-1.1,1.8-1.1
											C768.1,189.8,768.9,190.3,768.9,190.9z"/>
										<path class="st6" d="M2046.3,184.1c0,2-2.7,3.7-6,3.7s-6-1.7-6-3.7s2.7-3.7,6-3.7S2046.3,182.1,2046.3,184.1z"/>
										<path class="st6" d="M2059.7,352.4c0,2.3-3,4.1-6.7,4.1s-6.7-1.9-6.7-4.1c0-2.3,3-4.1,6.7-4.1S2059.7,350.2,2059.7,352.4z
											"/>
										<path class="st6" d="M1947.4,482.6c0,1.9-2.5,3.5-5.7,3.5s-5.7-1.6-5.7-3.5s2.5-3.5,5.7-3.5S1947.4,480.6,1947.4,482.6z"
											/>
										<path class="st6" d="M1750,516.6c0,1.3-1.7,2.3-3.8,2.3s-3.8-1-3.8-2.3s1.7-2.3,3.8-2.3S1750,515.3,1750,516.6z"/>
									</g>
									<g>
										<path class="st7" d="M1261.4,225.6c-0.6-5-12.3-5.5-32.3-0.1c0.8,0.9,1.5,1.9,2.2,3c7.9-0.9,13.1-0.4,14,1.8
											c0.9,2.1-2.5,5.5-9,9.5c-0.2-0.7-0.4-1.3-0.6-2c0-0.1-0.1-0.3-0.1-0.4c-0.6-1.7-1.2-3.3-2-4.8c0-0.1-0.1-0.2-0.1-0.2
											c-6-11.8-18.3-20.5-33.1-22.7l0,0c-1.1-0.2-2.2-0.3-3.4-0.4h-0.1c-1.1-0.1-2.3-0.1-3.5-0.2h-0.4c-2.2,0-4.4,0.2-6.5,0.4
											l0,0c-1.1,0.2-2.3,0.3-3.4,0.6c-0.1,0-0.3,0-0.4,0.1c-1.1,0.2-2.2,0.5-3.3,0.8h-0.1c-1.1,0.3-2.1,0.6-3.1,1
											c-0.1,0-0.2,0-0.2,0.1c-1,0.4-2,0.8-3,1.2c-0.2,0.1-0.3,0.1-0.4,0.2c-1,0.5-1.9,0.9-2.8,1.4h-0.1c-0.9,0.5-1.7,1-2.6,1.6
											c-0.1,0.1-0.3,0.2-0.4,0.2c-0.3,0.2-0.5,0.3-0.8,0.5l0,0c-0.6,0.4-1.1,0.8-1.7,1.2c-0.2,0.1-0.3,0.2-0.4,0.3
											c-0.5,0.4-1.1,0.9-1.6,1.3c-0.1,0-0.1,0.1-0.2,0.1c-0.6,0.5-1.1,1-1.7,1.5l0,0c-1.7,1.6-3.2,3.3-4.6,5.2
											c-0.1,0.1-0.1,0.2-0.2,0.3c-0.4,0.5-0.7,1-1.1,1.5c-0.1,0.1-0.2,0.3-0.3,0.4c-0.3,0.5-0.6,1-0.9,1.5
											c-0.1,0.2-0.2,0.3-0.3,0.5c-0.3,0.5-0.6,1-0.8,1.6c-0.1,0.1-0.1,0.3-0.2,0.4c-0.5,1-0.9,2-1.3,3c0,0,0,0,0,0.1
											c-0.1,0.3-0.3,0.7-0.4,1c0,0.2-0.1,0.3-0.2,0.5c-0.2,0.5-0.3,1.1-0.5,1.6c-0.1,0.2-0.1,0.5-0.2,0.7
											c-0.1,0.5-0.2,0.9-0.3,1.4c-0.1,0.3-0.1,0.5-0.2,0.8c-0.1,0.4-0.2,0.9-0.2,1.3l0,0v0.1c0,0.3-0.1,0.5-0.1,0.8
											c-0.1,0.5-0.1,1-0.2,1.5c0,0.2,0,0.5-0.1,0.7c0,0.7-0.1,1.5-0.1,2.2c0,1.3,0.1,2.7,0.2,4c-16.2,7.9-25.9,15.1-24.2,19.1
											c1.7,4,14.3,3.7,32.3,0.1l0,0c2.7,3.3,6,6.3,9.7,8.8l0,0c6.8,4.5,15.1,7.2,24.1,7.6c0.8,0,1.5,0,2.3,0s1.7,0,2.5-0.1
											c0.3,0,0.5,0,0.8-0.1c0.6,0,1.1-0.1,1.7-0.1c0.3,0,0.6-0.1,0.9-0.1c0.5-0.1,1-0.1,1.6-0.2c0.3,0,0.6-0.1,0.9-0.1
											c0.5-0.1,1.1-0.2,1.6-0.3c0.3-0.1,0.5-0.1,0.8-0.2c0.6-0.1,1.2-0.3,1.8-0.4c0.2,0,0.3-0.1,0.5-0.1
											c1.6-0.4,3.1-0.9,4.6-1.5c0.2-0.1,0.3-0.1,0.4-0.2c0.6-0.2,1.2-0.5,1.8-0.7c0.2-0.1,0.3-0.2,0.5-0.2
											c0.6-0.3,1.1-0.5,1.7-0.8c0.2-0.1,0.3-0.2,0.5-0.2c0.6-0.3,1.2-0.6,1.7-1c0.1-0.1,0.2-0.1,0.3-0.2c2.1-1.2,4-2.6,5.8-4.1
											l0,0c0.5-0.4,1-0.8,1.4-1.2c0.1-0.1,0.2-0.2,0.3-0.2l0,0c0-0.1,0.1-0.1,0.2-0.2c0.4-0.4,0.8-0.8,1.2-1.2
											c0.1-0.1,0.2-0.2,0.2-0.2l0.1-0.1l0.1-0.1c0.4-0.4,0.8-0.8,1.2-1.2l0.1-0.1c5.5-6.2,8.9-14,9.4-22.4
											c0-0.6,0.1-1.2,0.1-1.9l0,0c0-0.9,0-1.7-0.1-2.6c0-0.2,0-0.5-0.1-0.7c0-0.2,0-0.5-0.1-0.7l0,0
											C1253.3,236.7,1261.8,229.7,1261.4,225.6L1261.4,225.6L1261.4,225.6z M1149,254.4c0-0.2-0.1-0.4-0.1-0.6
											C1149,254,1149,254.2,1149,254.4z M1140.1,265.7c-0.9-2.2,2.6-5.6,9.2-9.6V256c0.2,1,0.5,2.1,0.8,3.1l0,0
											c0.3,0.9,0.6,1.8,0.9,2.6l0,0c0.7,1.7,1.5,3.4,2.4,5c0,0,0,0.1,0.1,0.1c0.2,0.3,0.3,0.5,0.4,0.8
											C1146.1,268.4,1141.1,267.8,1140.1,265.7L1140.1,265.7L1140.1,265.7z"/>
										<path class="st7" d="M1895.8,377.1c-16-14.3-42.2-14.3-58.2,0s-16,37.5,0,51.8s42.2,14.3,58.2,0
											C1911.9,414.6,1911.9,391.3,1895.8,377.1L1895.8,377.1L1895.8,377.1z"/>
										<path class="st7" d="M1544.7,130.6c-16-14.3-42.2-14.3-58.2,0s-16,37.5,0,51.8s42.2,14.3,58.2,0
											S1560.7,144.9,1544.7,130.6L1544.7,130.6L1544.7,130.6z"/>
										<path class="st7" d="M1557.8,108.9c-3.8-3.4-9.9-3.4-13.7,0c-3.8,3.4-3.8,8.8,0,12.2c3.8,3.4,9.9,3.4,13.7,0
											S1561.6,112.3,1557.8,108.9z"/>
									</g>
									<g>
										<path class="st8" d="M885.1,139.7c0,1.3-1.2,2.3-2.6,2.3s-2.6-1-2.6-2.3s1.2-2.3,2.6-2.3S885.1,138.5,885.1,139.7z"/>
										<path class="st8" d="M1213.5,123.5c0,1.3-1.2,2.3-2.6,2.3s-2.6-1-2.6-2.3s1.2-2.3,2.6-2.3S1213.5,122.2,1213.5,123.5z"/>
										<path class="st8" d="M1953.5,303.7c0,1.3-1.2,2.3-2.6,2.3s-2.6-1-2.6-2.3s1.2-2.3,2.6-2.3
											C1952.3,301.4,1953.5,302.4,1953.5,303.7z"/>
										<path class="st8" d="M1281.2,447.5c0,1-0.9,1.7-1.9,1.7s-1.9-0.8-1.9-1.7s0.9-1.7,1.9-1.7S1281.2,446.6,1281.2,447.5z"/>
										<path class="st8" d="M1609.8,56.8c0.8,0.6,0.9,1.7,0.3,2.4s-1.8,0.9-2.7,0.3c-0.8-0.6-0.9-1.7-0.3-2.4
											C1607.8,56.3,1609,56.2,1609.8,56.8z"/>
										<path class="st8" d="M1950.9,236.3c0,2.4-2.2,4.3-4.8,4.3c-2.7,0-4.8-1.9-4.8-4.3c0-2.4,2.2-4.3,4.8-4.3
											C1948.7,232,1950.9,233.9,1950.9,236.3z"/>
										<path class="st8" d="M1226.1,137.4c0,2.4-2.2,4.3-4.8,4.3s-4.8-1.9-4.8-4.3s2.2-4.3,4.8-4.3S1226.1,135,1226.1,137.4z"/>
										<path class="st8" d="M1663.2,221.6c0,2.4-2.2,4.3-4.8,4.3s-4.8-1.9-4.8-4.3c0-2.4,2.2-4.3,4.8-4.3
											S1663.2,219.2,1663.2,221.6z"/>
										<path class="st8" d="M1223.9,360.3c0,1.3-1.2,2.3-2.6,2.3s-2.6-1-2.6-2.3s1.2-2.3,2.6-2.3
											C1222.7,357.9,1223.9,359,1223.9,360.3z"/>
										<path class="st8" d="M1596.4,59.9c0,1.3-1.2,2.3-2.6,2.3s-2.6-1-2.6-2.3s1.2-2.3,2.6-2.3S1596.4,58.6,1596.4,59.9z"/>
										<path class="st8" d="M1465.9,350.9c0,1-0.9,1.8-2,1.8s-2-0.8-2-1.8s0.9-1.8,2-1.8S1465.9,349.9,1465.9,350.9z"/>
										<path class="st8" d="M1436.6,388.5c-1.1,0-2-0.8-2-1.8s0.9-1.8,2-1.8s2,0.8,2,1.8S1437.7,388.5,1436.6,388.5z"/>
										<ellipse class="st8" cx="1620.3" cy="540.8" rx="1.1" ry="1"/>
										<path class="st8" d="M1281.3,485.1c0,0.5-0.5,1-1,1s-1-0.4-1-1s0.5-1,1-1S1281.3,484.6,1281.3,485.1z"/>
										<path class="st8" d="M1737.3,694.3c0.8,0.6,1,1.7,0.3,2.4s-1.9,0.9-2.7,0.3c-0.8-0.6-1-1.7-0.3-2.4
											C1735.3,693.8,1736.5,693.7,1737.3,694.3z"/>
										<path class="st8" d="M1353.9,431.4c0.8,0.6,1,1.7,0.3,2.4c-0.7,0.7-1.9,0.9-2.7,0.3c-0.8-0.6-1-1.7-0.3-2.4
											C1351.9,430.9,1353.1,430.8,1353.9,431.4z"/>
										<ellipse class="st8" cx="850.5" cy="84.7" rx="1.1" ry="1"/>
										<path class="st8" d="M2045.2,59.9c0,1-0.9,1.7-2,1.7s-2-0.8-2-1.7c0-1,0.9-1.7,2-1.7S2045.2,58.9,2045.2,59.9z"/>
										<path class="st8" d="M1468.8,486.1c0,0.5-0.5,1-1.1,1s-1.1-0.4-1.1-1s0.5-1,1.1-1S1468.8,485.5,1468.8,486.1z"/>
										<path class="st8" d="M662.9,83.7c0,0.5-0.4,1-1,1s-1.1-0.3-1.2-0.9c0-0.5,0.4-1,1-1C662.4,82.8,662.9,83.2,662.9,83.7z"/>
										<path class="st8" d="M1756.8,669.6c0.2,0.5,0,1-0.6,1.3c-0.5,0.2-1.2,0-1.4-0.5c-0.2-0.5,0-1,0.6-1.2
											S1756.5,669.1,1756.8,669.6z"/>
										<path class="st9" d="M1298.5,531.6l2.5,4.2c0.9,1.5,2.2,2.7,3.8,3.5l4.6,2.3c0.2,0.1,0.2,0.3,0,0.4l-4.6,2.3
											c-1.6,0.8-2.9,2-3.8,3.5l-2.5,4.2c-0.1,0.2-0.3,0.2-0.5,0l-2.5-4.2c-0.9-1.5-2.2-2.7-3.8-3.5l-4.6-2.3
											c-0.2-0.1-0.2-0.3,0-0.4l4.6-2.3c1.6-0.8,2.9-2,3.8-3.5l2.5-4.2C1298.2,531.4,1298.4,531.4,1298.5,531.6z"/>
										<path class="st9" d="M1839,554.7l2.5,4.2c0.9,1.5,2.2,2.7,3.8,3.5l4.6,2.3c0.2,0.1,0.2,0.3,0,0.4l-4.6,2.3
											c-1.6,0.8-2.9,2-3.8,3.5l-2.5,4.2c-0.1,0.2-0.3,0.2-0.5,0l-2.5-4.2c-0.9-1.5-2.2-2.7-3.8-3.5l-4.6-2.3
											c-0.2-0.1-0.2-0.3,0-0.4l4.6-2.3c1.6-0.8,2.9-2,3.8-3.5l2.5-4.2C1838.7,554.5,1838.9,554.5,1839,554.7z"/>
										<path class="st9" d="M1380.5,146.3l2.6,4.2c0.9,1.5,2.3,2.7,3.9,3.5l4.8,2.3c0.2,0.1,0.2,0.3,0,0.4l-4.8,2.3
											c-1.6,0.8-3,2-3.9,3.5l-2.6,4.2c-0.1,0.2-0.4,0.2-0.5,0l-2.6-4.2c-0.9-1.5-2.3-2.7-3.9-3.5l-4.8-2.3
											c-0.2-0.1-0.2-0.3,0-0.4l4.8-2.3c1.6-0.8,3-2,3.9-3.5l2.6-4.2C1380.1,146.1,1380.4,146.1,1380.5,146.3z"/>
										<path class="st9" d="M979.7,111l1,1.6c0.3,0.6,0.9,1,1.5,1.3l1.8,0.9c0,0,0.1,0.1,0,0.2l-1.8,0.9
											c-0.6,0.3-1.1,0.8-1.5,1.3l-1,1.6c0,0-0.1,0.1-0.2,0l-1-1.6c-0.3-0.6-0.9-1-1.5-1.3l-1.8-0.9c0,0-0.1-0.1,0-0.2l1.8-0.9
											c0.6-0.3,1.1-0.8,1.5-1.3l1-1.6C979.5,111,979.6,110.9,979.7,111z"/>
										<path class="st9" d="M1377.4,488.3l1,1.6c0.3,0.6,0.9,1,1.5,1.3l1.8,0.9c0,0,0.1,0.1,0,0.2l-1.8,0.9
											c-0.6,0.3-1.1,0.8-1.5,1.3l-1,1.6c0,0-0.1,0.1-0.2,0l-1-1.6c-0.3-0.6-0.9-1-1.5-1.3l-1.8-0.9c0,0-0.1-0.1,0-0.2l1.8-0.9
											c0.6-0.3,1.1-0.8,1.5-1.3l1-1.6C1377.2,488.3,1377.3,488.2,1377.4,488.3z"/>
										<path class="st9" d="M1681.1,3.6l1,1.6c0.3,0.6,0.9,1,1.5,1.3l1.8,0.9c0,0,0.1,0.1,0,0.2l-1.8,0.9
											c-0.6,0.3-1.1,0.8-1.5,1.3l-1,1.6c0,0-0.1,0.1-0.2,0l-1-1.6c-0.3-0.6-0.9-1-1.5-1.3l-1.8-0.9c0,0-0.1-0.1,0-0.2l1.8-0.9
											c0.6-0.3,1.1-0.8,1.5-1.3l1-1.6C1680.9,3.6,1681.1,3.5,1681.1,3.6z"/>
										<path class="st9" d="M1531,274.1l1.3,2.1c0.4,0.7,1.1,1.3,1.9,1.7l2.3,1.1c0.1,0,0.1,0.2,0,0.2l-2.3,1.1
											c-0.8,0.4-1.5,1-1.9,1.7l-1.3,2.1c0,0.1-0.2,0.1-0.2,0l-1.3-2.1c-0.4-0.7-1.1-1.3-1.9-1.7l-2.3-1.1c-0.1,0-0.1-0.2,0-0.2
											l2.3-1.1c0.8-0.4,1.5-1,1.9-1.7l1.3-2.1C1530.8,274,1530.9,274,1531,274.1z"/>
										<path class="st9" d="M1901.5,114.9l1.3,2.1c0.4,0.7,1.1,1.3,1.9,1.7l2.3,1.1c0.1,0,0.1,0.2,0,0.2l-2.3,1.1
											c-0.8,0.4-1.5,1-1.9,1.7l-1.3,2.1c0,0.1-0.2,0.1-0.2,0l-1.3-2.1c-0.4-0.7-1.1-1.3-1.9-1.7l-2.3-1.1c-0.1,0-0.1-0.2,0-0.2
											l2.3-1.1c0.8-0.4,1.5-1,1.9-1.7l1.3-2.1C1901.3,114.8,1901.4,114.8,1901.5,114.9z"/>
										<path class="st9" d="M1817.8,452.6l1.8,3c0.6,1,1.6,1.9,2.7,2.4l3.3,1.6c0.1,0.1,0.1,0.2,0,0.3l-3.3,1.6
											c-1.1,0.6-2.1,1.4-2.7,2.4l-1.8,3c-0.1,0.1-0.3,0.1-0.3,0l-1.8-3c-0.6-1-1.6-1.9-2.7-2.4l-3.3-1.6c-0.1-0.1-0.1-0.2,0-0.3
											l3.3-1.6c1.1-0.6,2.1-1.4,2.7-2.4l1.8-3C1817.5,452.5,1817.7,452.5,1817.8,452.6z"/>
									</g>
								</g>
								
									<linearGradient id="SVGID_00000036252702815965330070000000949236799725655964_" gradientUnits="userSpaceOnUse" x1="416.0609" y1="40.399" x2="1870.3142" y2="580.2343">
									<stop  offset="0.1281" style="stop-color:#EB56FF"/>
									<stop  offset="0.6487" style="stop-color:#F428FF"/>
									<stop  offset="0.91" style="stop-color:#FA0CFF"/>
								</linearGradient>
								<path style="fill:url(#SVGID_00000036252702815965330070000000949236799725655964_);" d="M2115.9,354.9
									c-23.6,5.4-39.2,17.6-46.4,24c-17.3,19.8,4.3,37-16.8,70.1c-3.7,5.9-18.4,28-53.1,42.3c-51.4,21.3-88.1,1.1-135.7,18.9
									c-38,14.2-26.3,31.4-75.7,75.6c-24.2,21.7-59.7,55.7-97.8,60.5c-48.1,6-53.7-39.5-135.7-59.7c-47.8-11.7-89.2-6.9-104.1-4.6
									c-49.2,7.4-53.5,22.4-85.3,24.9c-61.7,4.9-76.9-49.7-151.2-76.7c-93.3-33.9-132.5,29.2-204.1-8.3
									c-63.4-33.2-41.2-87.2-109.5-133.8c-81.2-55.4-153.1-6.8-197.6-60.5c-40.6-49,5.4-106.6-34.9-147.3
									c-49.3-49.9-138.2,16.3-202-37.3c-46-38.6-24.7-94.6-74.3-118c-5.9-2.8-4.9-1.4-108.1-10.8c-31-2.8-57-2-74.6-22.1
									c-12.2-13.9-15.7-21.1-24.5-31.9c0,0-9-11-34.7-27.2c-30.4-19-99.4-39.7-191.3-46.4c2.8,16.8,5.7,33.7,8.5,50.5l-0.2,43.6
									c36.2-4.9,75.3-4.6,97.6,2.5c52.2,16.6,14.3,118.9,177.8,92.5c202.1-19.4,76.8,99.7,145.5,141
									c65.6,39.5,156.3,4.9,206.1,68.1c34.7,43.8,2.4,98.7,44.1,130.8c11.9,9.2,19,8.1,84.6,15.2
									c118.7,12.8,133.6,20.7,143.5,26.5c33.6,19.6,51.2,50.1,71.4,78.1s47.7,56.5,89,64.8c62,12.5,133.2-24.7,189-1.1
									c44.2,18.7,53.6,66.8,98.3,84.7c33.2,13.3,74.3,5.3,108.9-5.9s69.4-25.6,107.1-24.4c75.2,2.3,135.5,65.9,209.1,53.8
									c81.5-13.4,99.4-99.2,153.1-137.8c37.9-27.3,91.7-42,144.4-39.5c52.7,2.6,103.5,22.2,136.4,52.9v127.5h0.5V357.9
									C2164.1,354.8,2142.5,348.8,2115.9,354.9z"/>
							</g>
						</g>
					</g>
				</g>
			</g>
		</g>
	</g>
</g>
</svg>
