<?xml version="1.0" encoding="UTF-8"?>
<svg id="Camada_2" data-name="Camada 2" xmlns="http://www.w3.org/2000/svg" viewBox="0 0 1041.52 502.87">
  <defs>
    <style>
      .cls-1 {
        fill: #fff;
      }

      .cls-2 {
        fill: none;
        stroke: #6311e1;
        stroke-miterlimit: 10;
        stroke-width: 40px;
      }
    </style>
  </defs>
  <g id="Camada_1_c贸pia_c贸pia_2" data-name="Camada 1 c贸pia c贸pia 2">
    <g>
      <path class="cls-1" d="m641.76,426.64h-57.57s0-111.87,0-111.87h-33.3l-17.41,111.87h-58.27l59.82-383.87h106.73s0,383.87,0,383.87Zm-57.57-160.13V91.29h-1.1l-24.68,175.23h25.78Z"/>
      <path class="cls-1" d="m790.91,426.64h-121.74V42.77h57.58v335.61h64.16v48.26Z"/>
      <path class="cls-1" d="m1027.54,56.76c-9.33-9.32-20.76-13.98-34.28-13.98h-223.74v47.71h47.71v336.16h57.58V90.49h25.77v288.45c0,13.16,4.67,24.4,13.99,33.72,9.32,9.33,20.74,13.99,34.27,13.99h44.42c13.52,0,24.95-4.66,34.28-13.99,9.32-9.32,13.98-20.56,13.98-33.72V91.03c0-13.52-4.66-24.95-13.98-34.27Zm-43.6,309.02c0,3.65-1.29,6.67-3.84,9.04-2.56,2.39-5.67,3.57-9.32,3.57-3.29,0-6.22-1.18-8.78-3.57-2.56-2.37-3.84-5.39-3.84-9.04V103.65c0-3.65,1.28-6.67,3.84-9.05,2.56-2.37,5.49-3.57,8.78-3.57,3.65,0,6.76,1.2,9.32,3.57,2.55,2.38,3.84,5.4,3.84,9.05v262.13Z"/>
    </g>
    <g>
      <path id="SIMBOL" class="cls-2" d="m315.55,411.52L45.79,177.3c-19.9-17.28-13.01-49.71,12.19-57.41L379.98,21.5c23.69-7.24,46.79,12.82,42.94,37.29l-52.24,332.61c-4.09,26.04-35.24,37.41-55.14,20.12Z"/>
      <path id="SIMBOL-2" data-name="SIMBOL" class="cls-2" d="m48.64,476.06c-22.86,15.18-35.95,3.62-24.33-21.5L236.52,74.64l152.81,135.08L48.64,476.06Z"/>
    </g>
  </g>
</svg>