<?xml version="1.0" encoding="UTF-8"?>
<svg id="Camada_2" data-name="Camada 2" xmlns="http://www.w3.org/2000/svg" viewBox="0 0 458.01 732">
  <defs>
    <style>
      .cls-1 {
        fill: none;
        stroke: #6311e1;
        stroke-miterlimit: 10;
        stroke-width: 30px;
      }

      .cls-2 {
        fill: #fff;
      }
    </style>
  </defs>
  <g id="Camada_1_c贸pia_c贸pia" data-name="Camada 1 c贸pia c贸pia">
    <g>
      <g id="TYPO">
        <g>
          <path class="cls-2" d="m142.18,324.99h-48.74s0-94.71,0-94.71h-28.19l-14.74,94.71H1.18L51.82,0h90.36s0,324.99,0,324.99Zm-48.74-135.57V41.07h-.93l-20.9,148.35h21.83Z"/>
          <path class="cls-2" d="m268.45,324.99h-103.07V0h48.75v284.13h54.32v40.86Z"/>
          <path class="cls-2" d="m103.83,723.02h-56.78v-331.48H0v-47.05h213.84v47.05h-110.02v331.48Zm116.8,0h-43.8c-13.34,0-24.6-4.6-33.8-13.79s-13.79-20.28-13.79-33.26v-283.9c0-13.33,4.6-24.6,13.79-33.8s20.46-13.79,33.8-13.79h43.8c13.33,0,24.6,4.6,33.8,13.79s13.79,20.46,13.79,33.8v283.9c0,12.98-4.6,24.06-13.79,33.26s-20.46,13.79-33.8,13.79Zm-22.17-47.59c3.6,0,6.67-1.17,9.19-3.51,2.52-2.34,3.79-5.31,3.79-8.92v-258.48c0-3.6-1.27-6.57-3.79-8.92-2.53-2.34-5.59-3.51-9.19-3.51-3.24,0-6.13,1.17-8.65,3.51-2.53,2.35-3.79,5.32-3.79,8.92v258.48c0,3.61,1.26,6.58,3.79,8.92,2.52,2.35,5.41,3.51,8.65,3.51Z"/>
        </g>
      </g>
      <path id="SIMBOL" class="cls-1" d="m391.67,682.94l-128.98-111.77c-9.52-8.24-6.24-23.74,5.8-27.43l153.79-47.15c11.32-3.47,22.36,6.1,20.53,17.79l-24.8,158.92c-1.94,12.44-16.82,17.89-26.33,9.64Zm-33.65-158.8c-2.69-2.42-4.66-4.48-6.69-3.97-2.17.65-4.1,3.6-6.92,8.95l-95.6,177.04c-.89,1.64-1.16,3.58-.6,5.36.05.17.11.33.17.49,1.89,4.91,8.08,6.5,12.31,3.37l160.99-119.31c10.12-7.8,7.91-9.91,2.99-14.17l-66.65-57.75h0Z"/>
    </g>
  </g>
</svg>