<?xml version="1.0" encoding="UTF-8"?>
<svg xmlns="http://www.w3.org/2000/svg" xmlns:xlink="http://www.w3.org/1999/xlink" viewBox="0 0 1919.7 1086.31">
  <defs>
    <style>
      .cls-1, .cls-2 {
        fill: none;
      }

      .cls-3, .cls-4 {
        fill: #fff;
      }

      .cls-3, .cls-2 {
        stroke: #6c24d7;
        stroke-miterlimit: 10;
        stroke-width: 5px;
      }

      .cls-5 {
        fill: url(#linear-gradient);
      }

      .cls-6 {
        clip-path: url(#clippath);
      }

      .cls-7 {
        fill: url(#Gradiente_sem_nome_2);
      }

      .cls-8 {
        mask: url(#mask);
      }

      .cls-9 {
        fill: #6c24d7;
      }

      .cls-10 {
        fill: #cbfefe;
      }

      .cls-11 {
        fill: #3ddccd;
      }

      .cls-12 {
        fill: #4913ae;
      }

      .cls-13 {
        fill: url(#Gradiente_sem_nome_16);
      }

      .cls-14 {
        fill: url(#Gradiente_sem_nome_39);
      }

      .cls-15 {
        fill: url(#linear-gradient-2);
      }

      .cls-16 {
        mix-blend-mode: screen;
        opacity: .7;
      }

      .cls-17 {
        fill: #6988f9;
        mix-blend-mode: multiply;
        opacity: .1;
      }

      .cls-18 {
        isolation: isolate;
      }

      .cls-19 {
        fill: #bcbcbc;
        opacity: .5;
      }
    </style>
    <clipPath id="clippath">
      <rect class="cls-1" width="1919.7" height="1086.31"/>
    </clipPath>
    <mask id="mask" y="2.75" width="1919.7" height="1083.56" maskUnits="userSpaceOnUse">
      <rect class="cls-4" y="2.75" width="1919.7" height="1083.56"/>
    </mask>
    <linearGradient id="Gradiente_sem_nome_2" data-name="Gradiente sem nome 2" x1="1867.35" y1="504.36" x2="-356.14" y2="599.41" gradientUnits="userSpaceOnUse">
      <stop offset=".29" stop-color="#a050ff"/>
      <stop offset=".47" stop-color="#6888f7"/>
      <stop offset=".64" stop-color="#3cb7f1"/>
      <stop offset=".79" stop-color="#1bd8ed"/>
      <stop offset=".92" stop-color="#08ecea"/>
      <stop offset="1" stop-color="#01f4ea"/>
    </linearGradient>
    <linearGradient id="linear-gradient" x1="1972.7" y1="-84.92" x2="812.84" y2="1042.39" gradientTransform="translate(90.36 6.9) rotate(-.33) scale(.92 .95)" gradientUnits="userSpaceOnUse">
      <stop offset="0" stop-color="#a050ff"/>
      <stop offset=".26" stop-color="#6888f7"/>
      <stop offset=".5" stop-color="#3cb7f1"/>
      <stop offset=".71" stop-color="#1bd8ed"/>
      <stop offset=".88" stop-color="#08ecea"/>
      <stop offset="1" stop-color="#01f4ea"/>
    </linearGradient>
    <linearGradient id="Gradiente_sem_nome_16" data-name="Gradiente sem nome 16" x1="966.49" y1="789.91" x2="1350.32" y2="789.91" gradientUnits="userSpaceOnUse">
      <stop offset="0" stop-color="#c8ffff" stop-opacity="0"/>
      <stop offset=".42" stop-color="#e577ff" stop-opacity=".53"/>
      <stop offset=".77" stop-color="#f0f"/>
    </linearGradient>
    <linearGradient id="Gradiente_sem_nome_39" data-name="Gradiente sem nome 39" x1="446.88" y1="1142.3" x2="1597.41" y2="-419.77" gradientUnits="userSpaceOnUse">
      <stop offset="0" stop-color="#c8ffff"/>
      <stop offset=".08" stop-color="#cde4ff"/>
      <stop offset=".34" stop-color="#de95ff"/>
      <stop offset=".57" stop-color="#eb56ff"/>
      <stop offset=".77" stop-color="#f428ff"/>
      <stop offset=".91" stop-color="#fa0cff"/>
      <stop offset="1" stop-color="#fd02ff"/>
    </linearGradient>
    <linearGradient id="linear-gradient-2" x1="203.41" y1="1270.75" x2="533.1" y2="947.05" gradientUnits="userSpaceOnUse">
      <stop offset="0" stop-color="#c8ffff"/>
      <stop offset="1" stop-color="#fff"/>
    </linearGradient>
  </defs>
  <g class="cls-18">
    <g id="Camada_1" data-name="Camada 1">
      <g class="cls-6">
        <g class="cls-8">
          <g>
            <rect class="cls-7" width="1919.7" height="1086.31"/>
            <g>
              <path class="cls-5" d="M1916.02,687.25l2.01,353.34c-4.08,1.05-8.14,2.1-12.22,3.12-54.29,13.55-112.86,21.59-164.66-.28-110.85-46.83-142.66-205.17-245.92-268.48-104.93-64.3-254.96-12.93-346.71-96.76-102.67-93.83-62.64-295.87-172.52-380.1-38.8-29.74-89.17-37.69-129.81-64.57-44.39-29.37-73.21-78.51-98.5-126.99-18.41-35.27-36.27-71.74-59.71-103.16L1264.86-.13c10.32,21.13,22.37,40.88,38.42,57.7,67.49,70.75,179.55,64.19,259.19,119.05,80.8,55.68,112.74,161.86,143.66,258.46,30.92,96.57,75.12,201.45,164.62,239.45,14.83,6.28,29.95,10.37,45.27,12.72Z"/>
              <g class="cls-16">
                <path class="cls-11" d="M1696.04,726.33c0,4.76-3.74,8.62-8.34,8.62s-8.34-3.86-8.34-8.62,3.74-8.62,8.34-8.62,8.34,3.86,8.34,8.62Z"/>
                <ellipse class="cls-11" cx="1784.04" cy="251.37" rx="5.66" ry="5.84"/>
                <path class="cls-11" d="M361.33,221.18c0,3.81-2.99,6.9-6.68,6.9s-6.68-3.09-6.68-6.9,2.99-6.9,6.68-6.9,6.68,3.09,6.68,6.9Z"/>
                <path class="cls-11" d="M690.17,280.14c0,1.9-1.5,3.45-3.34,3.45s-3.34-1.54-3.34-3.45,1.5-3.45,3.34-3.45,3.34,1.54,3.34,3.45Z"/>
                <path class="cls-11" d="M861.64,47.89c0,1.8-1.42,3.26-3.16,3.26s-3.16-1.46-3.16-3.26,1.42-3.26,3.16-3.26,3.16,1.46,3.16,3.26Z"/>
                <path class="cls-11" d="M898.47,432.87c0,5.36-4.21,9.7-9.39,9.7s-9.39-4.34-9.39-9.7,4.21-9.7,9.39-9.7,9.39,4.34,9.39,9.7Z"/>
                <path class="cls-11" d="M1160.92,379.6c0,2.68-2.1,4.85-4.7,4.85s-4.7-2.17-4.7-4.85,2.1-4.85,4.7-4.85,4.7,2.17,4.7,4.85Z"/>
                <path class="cls-11" d="M1124.28,670.41c0,3.76-2.95,6.8-6.59,6.8s-6.59-3.04-6.59-6.8,2.95-6.8,6.59-6.8,6.59,3.04,6.59,6.8Z"/>
                <path class="cls-11" d="M473.01,245.53c0,2.15-1.68,3.89-3.76,3.89s-3.76-1.74-3.76-3.89,1.69-3.89,3.76-3.89,3.76,1.74,3.76,3.89Z"/>
                <path class="cls-11" d="M1491.41,740.77c0,3.22-2.53,5.83-5.65,5.83s-5.64-2.61-5.64-5.83,2.53-5.83,5.64-5.83,5.65,2.61,5.65,5.83Z"/>
                <path class="cls-11" d="M1235.5,883.63c0,3.76-2.95,6.8-6.59,6.8s-6.59-3.05-6.59-6.8,2.95-6.8,6.59-6.8,6.59,3.04,6.59,6.8Z"/>
                <path class="cls-11" d="M1433.24,971.46c0,2.3-1.81,4.17-4.04,4.17s-4.04-1.87-4.04-4.17,1.81-4.17,4.04-4.17,4.04,1.87,4.04,4.17Z"/>
                <ellipse class="cls-11" cx="999.96" cy="816.23" rx="3.57" ry="3.68"/>
                <path class="cls-11" d="M1327.46,949.91c0,1.14-.89,2.06-1.99,2.06s-1.99-.92-1.99-2.06,.89-2.06,1.99-2.06,1.99,.92,1.99,2.06Z"/>
                <path class="cls-11" d="M1018.42,827.9c0,1.33-1.04,2.4-2.33,2.4s-2.33-1.08-2.33-2.4,1.04-2.4,2.33-2.4,2.33,1.08,2.33,2.4Z"/>
                <path class="cls-11" d="M1054.45,514.85c0,3.32-2.61,6.01-5.82,6.01s-5.82-2.69-5.82-6.01,2.6-6.01,5.82-6.01,5.82,2.69,5.82,6.01Z"/>
                <path class="cls-11" d="M1446.88,226.36c0,2.86-2.25,5.18-5.02,5.18s-5.02-2.32-5.02-5.18,2.25-5.18,5.02-5.18,5.02,2.32,5.02,5.18Z"/>
                <path class="cls-11" d="M697.16,295.38c0,.9-.71,1.63-1.58,1.63s-1.58-.73-1.58-1.63,.71-1.63,1.58-1.63,1.58,.73,1.58,1.63Z"/>
                <path class="cls-11" d="M1807.61,285.54c0,2.96-2.32,5.35-5.19,5.35s-5.19-2.4-5.19-5.35,2.32-5.35,5.19-5.35,5.19,2.4,5.19,5.35Z"/>
                <path class="cls-11" d="M1819.25,529.77c0,3.32-2.6,6.01-5.82,6.01s-5.82-2.69-5.82-6.01,2.6-6.01,5.82-6.01,5.82,2.69,5.82,6.01Z"/>
                <path class="cls-11" d="M1721.6,718.54c0,2.81-2.21,5.1-4.93,5.1s-4.93-2.28-4.93-5.1,2.21-5.09,4.93-5.09,4.93,2.28,4.93,5.09Z"/>
                <path class="cls-11" d="M1550.06,768.02c0,1.88-1.47,3.4-3.29,3.4s-3.29-1.52-3.29-3.4,1.47-3.4,3.29-3.4,3.29,1.52,3.29,3.4Z"/>
              </g>
              <g>
                <path class="cls-17" d="M878.45,345.76c-.75-7.19-15.44-8.03-40.42-.08,.97,1.36,1.87,2.81,2.73,4.3,9.91-1.29,16.39-.55,17.54,2.59,1.13,3.09-3.14,8.04-11.24,13.75-.21-.96-.45-1.92-.71-2.86-.05-.19-.1-.39-.16-.58-.69-2.42-1.54-4.77-2.52-7.04-.05-.11-.09-.21-.14-.32-7.5-17.09-22.88-29.7-41.35-32.9-.02,0-.03,0-.05,0-1.4-.24-2.81-.43-4.24-.56-.05,0-.09,0-.14-.01-1.42-.13-2.86-.2-4.31-.22h0c-.17,0-.34-.01-.51-.01-2.75,0-5.46,.21-8.1,.61h0c-1.44,.22-2.85,.5-4.25,.83-.15,.04-.3,.07-.46,.11-1.38,.34-2.75,.72-4.09,1.16-.04,.01-.08,.03-.12,.04-1.33,.44-2.64,.94-3.93,1.48-.09,.04-.18,.07-.26,.11-1.26,.54-2.49,1.12-3.7,1.75-.18,.09-.35,.19-.53,.28-1.2,.64-2.39,1.32-3.54,2.04-.04,.02-.08,.05-.11,.08-1.11,.71-2.19,1.46-3.25,2.25-.16,.12-.33,.24-.49,.36-.32,.24-.63,.48-.94,.73,0,0,0,0,0,0,0,0,0,0,0,0-.71,.56-1.41,1.14-2.09,1.74-.18,.16-.36,.32-.54,.48-.68,.61-1.34,1.23-1.98,1.87-.07,.07-.14,.14-.21,.2-.71,.71-1.4,1.43-2.08,2.18-.01,.01-.03,.03-.04,.04-2.09,2.33-4,4.83-5.7,7.5-.08,.12-.15,.25-.23,.37-.46,.74-.91,1.48-1.34,2.24-.11,.2-.22,.39-.33,.59-.39,.71-.76,1.42-1.12,2.14-.11,.22-.22,.43-.32,.65-.36,.75-.71,1.52-1.04,2.29-.08,.18-.16,.36-.24,.54-.59,1.41-1.11,2.84-1.59,4.3,0,.03-.02,.06-.03,.08-.17,.51-.33,1.01-.49,1.52-.06,.21-.12,.43-.18,.64-.22,.77-.43,1.55-.62,2.34-.08,.34-.15,.68-.23,1.02-.15,.68-.29,1.36-.42,2.05-.07,.38-.14,.76-.2,1.14-.1,.64-.2,1.27-.28,1.92,0,0,0,0,0,0,0,.03,0,.07-.01,.1-.05,.38-.1,.76-.14,1.15-.08,.73-.14,1.46-.19,2.19-.02,.34-.06,.67-.07,1.01-.06,1.07-.09,2.15-.09,3.23,0,1.94,.1,3.85,.28,5.73-20.26,11.48-32.33,21.97-30.23,27.7,2.1,5.73,17.87,5.33,40.42,.08,0,0,0,0,0,0,3.39,4.85,7.49,9.14,12.15,12.69h0s0,0,0,0c8.5,6.47,18.84,10.5,30.07,11.09,.95,.05,1.9,.07,2.86,.07,1.05,0,2.09-.04,3.13-.1,.33-.02,.66-.05,.99-.08,.71-.05,1.41-.11,2.11-.19,.38-.04,.75-.1,1.13-.15,.65-.09,1.3-.19,1.95-.3,.37-.06,.74-.13,1.11-.2,.67-.13,1.32-.28,1.98-.43,.33-.08,.66-.15,.99-.23,.76-.19,1.51-.41,2.26-.63,.21-.06,.42-.12,.63-.19,1.96-.62,3.86-1.35,5.72-2.17,.18-.08,.35-.17,.53-.25,.74-.34,1.48-.7,2.21-1.07,.22-.11,.43-.23,.64-.34,.7-.37,1.39-.76,2.07-1.16,.19-.11,.39-.23,.58-.34,.73-.44,1.45-.9,2.16-1.38,.12-.08,.24-.16,.36-.24,2.58-1.76,5-3.73,7.26-5.89,.01-.01,.02-.02,.03-.03,.6-.58,1.2-1.17,1.78-1.78,.11-.11,.21-.23,.32-.34,0,0,.02-.02,.03-.03,.06-.07,.13-.14,.19-.21,.52-.56,1.02-1.12,1.52-1.7,.09-.11,.18-.22,.28-.33,.03-.04,.07-.08,.1-.12,.06-.07,.11-.13,.17-.2,.49-.59,.97-1.2,1.44-1.82,.05-.06,.1-.13,.14-.19,6.85-9.06,11.14-20.29,11.69-32.54,.04-.91,.07-1.82,.07-2.74h0c0-1.26-.05-2.49-.13-3.72-.02-.33-.05-.66-.07-.99-.03-.34-.04-.68-.08-1.01,0,0,0,0,.01,0,20.26-11.49,30.87-21.64,30.23-27.7Zm-140.49,41.83c-.04-.29-.07-.58-.11-.88,.04,.29,.07,.59,.11,.88Zm-11.08,16.34c-1.15-3.14,3.22-8.13,11.48-13.94-.01-.06-.02-.12-.03-.19,.27,1.5,.6,2.99,.98,4.45h0s0,0,0,0c.34,1.28,.72,2.55,1.14,3.79,0,.02,.01,.04,.02,.06,.84,2.48,1.84,4.89,2.99,7.2,.02,.05,.05,.1,.07,.15,.18,.37,.36,.74,.55,1.1-9.71,1.25-16.07,.46-17.2-2.63Z"/>
                <path class="cls-17" d="M1671.73,565.52c-20.06-20.72-52.71-20.72-72.77,0-20.06,20.72-20.07,54.43,0,75.15,20.06,20.72,52.71,20.72,72.78,0,20.06-20.72,20.06-54.43,0-75.15Z"/>
                <path class="cls-17" d="M1232.64,207.95c-20.06-20.72-52.71-20.72-72.77,0-20.06,20.72-20.07,54.43,0,75.15,20.06,20.72,52.71,20.72,72.78,0,20.06-20.72,20.06-54.43,0-75.15Z"/>
                <path class="cls-17" d="M1249.07,176.44c-4.71-4.87-12.38-4.87-17.09,0-4.71,4.87-4.71,12.78,0,17.65,4.71,4.87,12.38,4.87,17.09,0,4.71-4.87,4.71-12.78,0-17.65Z"/>
              </g>
              <g>
                <path class="cls-10" d="M407.97,221.18c0,1.86-1.46,3.37-3.27,3.37s-3.27-1.51-3.27-3.37,1.46-3.37,3.27-3.37,3.27,1.51,3.27,3.37Z"/>
                <path class="cls-10" d="M818.62,197.61c0,1.86-1.46,3.37-3.27,3.37s-3.27-1.51-3.27-3.37,1.46-3.37,3.27-3.37,3.27,1.51,3.27,3.37Z"/>
                <path class="cls-10" d="M1743.83,459.08c0,1.86-1.46,3.37-3.27,3.37s-3.27-1.51-3.27-3.37,1.46-3.37,3.27-3.37,3.27,1.51,3.27,3.37Z"/>
                <path class="cls-10" d="M903.19,667.74c0,1.38-1.09,2.5-2.43,2.5s-2.43-1.12-2.43-2.5,1.09-2.51,2.43-2.51,2.43,1.12,2.43,2.51Z"/>
                <path class="cls-10" d="M1314.07,100.9c1.01,.86,1.18,2.44,.37,3.52-.81,1.08-2.29,1.25-3.31,.39-1.01-.86-1.18-2.44-.37-3.52,.81-1.08,2.29-1.25,3.31-.39Z"/>
                <path class="cls-10" d="M1740.57,361.32c0,3.46-2.72,6.27-6.07,6.27s-6.07-2.81-6.07-6.27,2.72-6.26,6.07-6.26,6.07,2.81,6.07,6.26Z"/>
                <path class="cls-10" d="M834.39,217.81c0,3.46-2.72,6.27-6.07,6.27s-6.07-2.81-6.07-6.27,2.72-6.26,6.07-6.26,6.07,2.8,6.07,6.26Z"/>
                <path class="cls-10" d="M1380.88,339.92c0,3.46-2.72,6.26-6.07,6.26s-6.07-2.8-6.07-6.26,2.72-6.26,6.07-6.26,6.07,2.81,6.07,6.26Z"/>
                <path class="cls-10" d="M831.59,541.13c0,1.86-1.46,3.37-3.27,3.37s-3.27-1.51-3.27-3.37,1.46-3.37,3.27-3.37,3.27,1.51,3.27,3.37Z"/>
                <path class="cls-10" d="M1297.27,105.36c0,1.86-1.46,3.37-3.27,3.37s-3.27-1.51-3.27-3.37,1.46-3.37,3.27-3.37,3.27,1.51,3.27,3.37Z"/>
                <path class="cls-10" d="M1134.2,527.51c0,1.43-1.12,2.59-2.51,2.59s-2.51-1.16-2.51-2.59,1.12-2.59,2.51-2.59,2.51,1.16,2.51,2.59Z"/>
                <path class="cls-10" d="M1097.56,582.08c-1.38,0-2.51-1.16-2.51-2.59s1.12-2.59,2.51-2.59,2.51,1.16,2.51,2.59-1.12,2.59-2.51,2.59Z"/>
                <ellipse class="cls-10" cx="1327.16" cy="803.1" rx="1.35" ry="1.39"/>
                <path class="cls-10" d="M903.38,722.27c0,.77-.59,1.39-1.31,1.39s-1.31-.62-1.31-1.39,.59-1.39,1.31-1.39,1.31,.62,1.31,1.39Z"/>
                <path class="cls-10" d="M1473.57,1025.79c1.05,.86,1.21,2.44,.38,3.52-.84,1.08-2.36,1.25-3.41,.39s-1.21-2.44-.38-3.52c.84-1.08,2.36-1.25,3.41-.39Z"/>
                <path class="cls-10" d="M994.15,644.31c1.05,.86,1.21,2.44,.38,3.52s-2.36,1.25-3.41,.39c-1.05-.86-1.21-2.44-.38-3.52,.84-1.08,2.36-1.25,3.41-.39Z"/>
                <ellipse class="cls-10" cx="364.77" cy="141.37" rx="1.35" ry="1.39"/>
                <path class="cls-10" d="M1858.43,105.36c0,1.4-1.1,2.54-2.46,2.54s-2.46-1.14-2.46-2.54,1.1-2.54,2.46-2.54,2.46,1.14,2.46,2.54Z"/>
                <path class="cls-10" d="M1137.79,723.66c0,.77-.6,1.39-1.35,1.39s-1.35-.62-1.35-1.39,.6-1.39,1.35-1.39,1.35,.62,1.35,1.39Z"/>
                <path class="cls-10" d="M130.21,139.87c.06,.77-.49,1.44-1.23,1.5-.74,.06-1.39-.51-1.46-1.27-.06-.77,.49-1.44,1.23-1.5,.74-.06,1.39,.51,1.46,1.27Z"/>
                <path class="cls-10" d="M1497.84,989.94c.29,.71-.04,1.53-.73,1.82-.69,.29-1.48-.04-1.76-.75s.04-1.53,.73-1.82c.69-.29,1.48,.04,1.76,.75Z"/>
                <path class="cls-4" d="M924.92,789.64l3.16,6.15c1.09,2.13,2.74,3.88,4.74,5.05l5.77,3.36c.22,.13,.22,.47,0,.6l-5.77,3.36c-2,1.17-3.65,2.92-4.74,5.05l-3.16,6.15c-.12,.24-.44,.24-.56,0l-3.16-6.15c-1.09-2.13-2.74-3.88-4.74-5.05l-5.77-3.36c-.22-.13-.22-.47,0-.6l5.77-3.36c2-1.17,3.65-2.92,4.74-5.05l3.16-6.15c.12-.24,.44-.24,.56,0Z"/>
                <path class="cls-4" d="M1600.72,823.22l3.16,6.15c1.1,2.13,2.74,3.88,4.74,5.05l5.77,3.36c.22,.13,.22,.47,0,.6l-5.77,3.36c-2,1.17-3.65,2.92-4.74,5.05l-3.16,6.15c-.12,.24-.44,.24-.56,0l-3.16-6.15c-1.1-2.13-2.74-3.88-4.74-5.05l-5.77-3.36c-.22-.13-.22-.47,0-.6l5.77-3.36c2-1.17,3.65-2.92,4.74-5.05l3.16-6.15c.12-.24,.44-.24,.56,0Z"/>
                <path class="cls-4" d="M1027.33,230.67l3.26,6.15c1.13,2.13,2.83,3.88,4.89,5.05l5.95,3.36c.23,.13,.23,.47,0,.6l-5.95,3.36c-2.06,1.17-3.76,2.92-4.89,5.05l-3.26,6.15c-.13,.24-.45,.24-.58,0l-3.26-6.15c-1.13-2.13-2.83-3.88-4.89-5.05l-5.95-3.36c-.23-.13-.23-.47,0-.6l5.95-3.36c2.06-1.17,3.76-2.92,4.89-5.05l3.26-6.15c.13-.24,.45-.24,.58,0Z"/>
                <path class="cls-4" d="M526.21,179.42l1.23,2.33c.43,.81,1.07,1.47,1.85,1.91l2.25,1.27c.09,.05,.09,.18,0,.23l-2.25,1.27c-.78,.44-1.42,1.1-1.85,1.91l-1.23,2.33c-.05,.09-.17,.09-.22,0l-1.23-2.33c-.43-.81-1.07-1.47-1.85-1.91l-2.25-1.27c-.09-.05-.09-.18,0-.23l2.25-1.27c.78-.44,1.42-1.1,1.85-1.91l1.23-2.33c.05-.09,.17-.09,.22,0Z"/>
                <path class="cls-4" d="M1023.5,726.89l1.23,2.33c.43,.81,1.07,1.47,1.85,1.91l2.25,1.27c.09,.05,.09,.18,0,.23l-2.25,1.27c-.78,.44-1.42,1.1-1.85,1.91l-1.23,2.33c-.05,.09-.17,.09-.22,0l-1.23-2.33c-.43-.81-1.07-1.47-1.85-1.91l-2.25-1.27c-.09-.05-.09-.18,0-.23l2.25-1.27c.78-.44,1.42-1.1,1.85-1.91l1.23-2.33c.05-.09,.17-.09,.22,0Z"/>
                <path class="cls-4" d="M1403.24,23.67l1.23,2.33c.43,.81,1.07,1.47,1.85,1.91l2.25,1.27c.09,.05,.09,.18,0,.23l-2.25,1.27c-.78,.44-1.42,1.1-1.85,1.91l-1.23,2.33c-.05,.09-.17,.09-.22,0l-1.23-2.33c-.43-.81-1.07-1.47-1.85-1.91l-2.25-1.27c-.09-.05-.09-.18,0-.23l2.25-1.27c.78-.44,1.42-1.1,1.85-1.91l1.23-2.33c.05-.09,.17-.09,.22,0Z"/>
                <path class="cls-4" d="M1215.54,416.09l1.6,3.01c.55,1.04,1.39,1.9,2.4,2.48l2.92,1.65c.11,.06,.11,.23,0,.29l-2.92,1.65c-1.01,.57-1.84,1.43-2.4,2.48l-1.6,3.01c-.06,.12-.22,.12-.28,0l-1.6-3.01c-.55-1.04-1.38-1.9-2.4-2.48l-2.92-1.65c-.11-.06-.11-.23,0-.29l2.92-1.65c1.01-.57,1.84-1.43,2.4-2.48l1.6-3.01c.06-.12,.22-.12,.28,0Z"/>
                <path class="cls-4" d="M1678.77,185.13l1.6,3.01c.55,1.04,1.39,1.9,2.4,2.47l2.92,1.65c.11,.06,.11,.23,0,.29l-2.92,1.65c-1.01,.57-1.84,1.43-2.4,2.48l-1.6,3.01c-.06,.12-.22,.12-.28,0l-1.6-3.01c-.55-1.04-1.38-1.9-2.4-2.48l-2.92-1.65c-.11-.06-.11-.23,0-.29l2.92-1.65c1.01-.57,1.84-1.43,2.4-2.47l1.6-3.01c.06-.12,.22-.12,.28,0Z"/>
                <path class="cls-4" d="M1574.11,675.16l2.27,4.29c.79,1.49,1.97,2.71,3.41,3.52l4.15,2.35c.16,.09,.16,.33,0,.42l-4.15,2.35c-1.44,.81-2.62,2.04-3.41,3.52l-2.27,4.29c-.09,.16-.32,.16-.4,0l-2.27-4.29c-.79-1.49-1.97-2.71-3.41-3.52l-4.15-2.35c-.16-.09-.16-.33,0-.42l4.15-2.35c1.44-.81,2.62-2.04,3.41-3.52l2.27-4.29c.09-.16,.32-.16,.4,0Z"/>
              </g>
            </g>
            <g>
              <path class="cls-13" d="M1208.78,980.47c-37.71-19.75,87.82-240.05,138.7-349.6,12.67-27.27-19.5-42.3-48.5-22.44-75.41,78.2-293.26,290.35-332.48,280"/>
              <polygon class="cls-3" points="1332.12 697.17 1248.54 639.71 1276.09 610.01 1349.31 660.48 1332.12 697.17"/>
              <g>
                <path class="cls-4" d="M1557.64,499.68c102.96-172.35,92.3-289.96,84.02-329.85-1.84-8.86-10.41-14.64-19.32-13.02-40.07,7.29-153.1,41.53-274.23,201.63,0,0-72.11,94.76-89.81,221.25l63.97,43.12,63.97,43.12c110.61-63.86,171.39-166.26,171.39-166.26Z"/>
                <path class="cls-2" d="M1557.64,499.68c102.96-172.35,92.3-289.96,84.02-329.85-1.84-8.86-10.41-14.64-19.32-13.02-40.07,7.29-153.1,41.53-274.23,201.63,0,0-72.11,94.76-89.81,221.25l63.97,43.12,63.97,43.12c110.61-63.86,171.39-166.26,171.39-166.26Z"/>
              </g>
              <g>
                <path class="cls-19" d="M1630.11,157.3s32.88,343.39-279.25,481.87c17.86,26.4,35.39,26.76,35.39,26.76l65.29-41.91s118.22-114.53,151.47-211.81,50.2-145.5,38.64-242.39c-4.16-6.99-11.55-12.53-11.55-12.53Z"/>
                <path class="cls-2" d="M1557.64,499.68c102.96-172.35,92.3-289.96,84.02-329.85-1.84-8.86-10.41-14.64-19.32-13.02-40.07,7.29-153.1,41.53-274.23,201.63,0,0-72.11,94.76-89.81,221.25l63.97,43.12,63.97,43.12c110.61-63.86,171.39-166.26,171.39-166.26Z"/>
                <rect class="cls-12" x="1258.66" y="602.11" width="122.95" height="47.75" transform="translate(575.34 -630.96) rotate(33.98)"/>
              </g>
              <path class="cls-9" d="M1341.14,422.57l-118.51,36.96c-15.47,4.83-28.28,15.81-35.42,30.36l-71.22,145.27c-3.49,7.12,.34,15.66,7.98,17.79h0c4.77,1.33,9.86-.23,13.06-4.01,20.71-24.42,100.49-112.12,172.24-104.54l31.86-121.83Z"/>
              <path class="cls-9" d="M1502.91,531.61l10.2,123.72c1.33,16.16-4.04,32.15-14.86,44.22l-107.94,120.52c-5.29,5.91-14.65,5.56-19.48-.72h0c-3.02-3.92-3.48-9.22-1.18-13.61,14.87-28.36,66.23-135.21,32.28-198.88l100.98-75.24Z"/>
              <path class="cls-9" d="M1246.17,752.49l-13.66-9.21c-3.05-2.06-3.89-6.17-1.9-9.26l155.52-241.34c2.53-3.93,7.79-5.01,11.67-2.4l20.88,14.07c3.87,2.61,4.85,7.9,2.16,11.72l-165.36,234.71c-2.12,3.01-6.25,3.77-9.3,1.71Z"/>
              <g>
                <path class="cls-9" d="M1540.2,419.34c-20.32,30.15-61.24,38.12-91.39,17.79-30.15-20.32-38.12-61.24-17.79-91.39,20.32-30.15,61.24-38.12,91.39-17.79,30.15,20.32,38.12,61.24,17.79,91.39Z"/>
                <path class="cls-12" d="M1521.51,406.74c-13.18,19.55-39.72,24.72-59.28,11.54-19.55-13.18-24.72-39.72-11.54-59.28,13.18-19.56,39.72-24.72,59.27-11.54,19.56,13.18,24.72,39.72,11.54,59.27Z"/>
              </g>
            </g>
            <path class="cls-14" d="M1828.48,568.13c-15.07,28.74,3.7,53.76-14.63,101.69-3.25,8.5-15.98,40.6-46.15,61.41-44.7,30.84-76.63,1.67-117.99,27.44-33.08,20.61-22.87,45.62-65.85,109.76-34.85,51.99-53.91,80.43-85.06,87.81-62.68,14.84-92.18-75.04-199.1-89.16-61.65-8.15-65.67,19.91-119.94,5.8-74.27-19.31-83.28-76.16-153.09-85.08-52.88-6.76-67.66,23.31-98.6,8-52.14-25.81-18.04-115.15-76.84-163.34-47.26-38.73-105.53-10.72-122.94-47.55-13.52-28.58,16.44-56.16-2.11-105.47-2.31-6.14-8.14-21.22-21.46-35.28-38.28-40.43-86.5-17.68-103.27-46.36-5.69-9.73,.83-36.83,14.09-90.63,12.23-49.61,17.19-58.84,14.09-78.94-.69-4.45-7.76-46.69-38.33-62.36-16.9-8.66-27.57-6.67-56.91-1.95-33.98,5.46-73.31,1.99-95.92-22.54-26.6-28.86-22.71-78.73-56.93-99.24-30.47-18.26-70.23-.94-106.26-3.07-31.74-1.88-50.76-5.22-64.86-32.11-10.57-20.16-13.66-30.56-21.31-46.3,0,0-7.78-16-30.19-39.4-26.41-27.57-86.4-57.56-166.3-67.24C-4.92-121.59-2.46-97.16,0-72.74L-2.87,1049.11H1918.69v-511.39c-28.83-21.25-73.99-.53-90.21,30.4Z"/>
            <path class="cls-15" d="M1803.85,787.43c-45.97-3.64-92.88,17.69-125.96,57.28-46.85,56.08-62.44,180.52-133.52,199.92-64.16,17.5-116.8-74.69-182.44-78.12-32.86-1.72-63.25,19.18-93.41,35.38-30.16,16.2-66.03,27.8-94.96,8.49-39-26.03-47.21-95.77-85.73-122.86-48.63-34.2-110.82,19.71-164.82,1.54-35.98-12.1-60-53.38-77.62-93.94-17.62-40.57-32.97-84.91-62.29-113.36-34.45-33.43-81.33-38.26-125.15-38.5-43.82-.24-89.49,2.31-129.36-20.14-61.1-34.39,27.02-120.7,17.1-191.76-11.06-79.21-119.88-38.79-179.82-98.73-59.94-59.94,49.36-232.71-126.93-204.5C96.28,166.58,129.29,18.18,83.8-5.85,46.1-25.77-46.26-8.97-69.45,29V1094.23H1922.85v-230.13c-28.71-44.48-73.02-73.03-119-76.67Z"/>
          </g>
        </g>
      </g>
    </g>
  </g>
</svg>